<mxfile host="65bd71144e">
    <diagram id="XS18wSOXP983q82KVI-4" name="Page-1">
        <mxGraphModel dx="1560" dy="469" grid="1" gridSize="10" guides="1" tooltips="1" connect="1" arrows="1" fold="1" page="1" pageScale="1" pageWidth="850" pageHeight="1100" math="0" shadow="0">
            <root>
                <mxCell id="0"/>
                <mxCell id="1" parent="0"/>
                <mxCell id="2" value="http://ics2o.mths.ca" style="swimlane;whiteSpace=wrap;html=1;" parent="1" vertex="1">
                    <mxGeometry x="60" y="60" width="760" height="480" as="geometry"/>
                </mxCell>
                <mxCell id="3" value="" style="rounded=0;whiteSpace=wrap;html=1;fillColor=#f9f7ed;strokeColor=#36393d;fontSize=9;" parent="2" vertex="1">
                    <mxGeometry y="130" width="760" height="350" as="geometry"/>
                </mxCell>
                <mxCell id="4" value="" style="whiteSpace=wrap;html=1;fillColor=#e3c800;fontColor=#000000;strokeColor=#B09500;" parent="2" vertex="1">
                    <mxGeometry y="20" width="760" height="110" as="geometry"/>
                </mxCell>
                <mxCell id="9" value="" style="shape=image;verticalLabelPosition=bottom;labelBackgroundColor=default;verticalAlign=top;aspect=fixed;imageAspect=0;image=data:image/jpeg,/9j/2wBDAAYEBQYFBAYGBQYHBwYIChAKCgkJChQODwwQFxQYGBcUFhYaHSUfGhsjHBYWICwgIyYnKSopGR8tMC0oMCUoKSj/2wBDAQcHBwoIChMKChMoGhYaKCgoKCgoKCgoKCgoKCgoKCgoKCgoKCgoKCgoKCgoKCgoKCgoKCgoKCgoKCgoKCgoKCj/wAARCAJYAyADASIAAhEBAxEB/8QAHAAAAQUBAQEAAAAAAAAAAAAABAECAwUGAAcI/8QAQRAAAgEDAwIFAgQEBQIGAgIDAQIDAAQREiExBUEGEyJRYTJxFCOBkQdCUqEVM2KxwSRyFiU0Q9HhNZKC8VOD8P/EABkBAAMBAQEAAAAAAAAAAAAAAAABAgMEBf/EACcRAQEAAgICAgMAAwADAQAAAAABAhEDIRIxBEETIlEUMmEjQlJx/9oADAMBAAIRAxEAPwDxOdj5rE9zzUROkE4qW6GnGeaiOM4rnbORsqxGc53oqGQlVCDG+agiUKPvUsaYAJOKAsvxJZEVhio5cZG+RUB1DBG4qRzlRnikaKYLqyDk1GB6dxvUmPWeKQk4zyKAKtYdSgjY0N1XEEiAcd6ljnKx42BFVt+Wd8nOaAtulyA2baeS1DTH8xjjvS9E3s5BnDA0kuMgAnmgiB/VvU0QGd6iUZfbtRCZ4ztQBBAEYPf4qLKjctv7VKf8rbfeh2bOoD22oM1lywI/SiUH5fB+aHH8o70SuRH/AMUALICMnPNRSYKmppBqBG/NDv6RyaAFgZhck+3vRrnVIGJBoI4EhHvRUA3U49JoCv2/xRvmnSY1ke9MQ6uqSk8YqaRsZB3pxNDSYwftXdJGIpiw5f8A4pJT6T9qk6T/AOlffJ1UURbR40qfilfbikiOFFK3BPNJQeYZcnNdEup11kEZ2pX3LEbZpbMM06DG2eaCZPxEc9WuM/1mqpzVn4hI/wAWut8/mGqtuK6J6Y0wUqjekp6jarxhG1PGQ6471GQMYFJwcitsf1qb2IG4IOaYGKtg805CHXBG9RsMMM8VslODUynEeDUKkE09zyPiqTTodhn5qQ8ZBqNSAoGKlHAxTCKddURGKAwyfUDirKTCoc96HPqXfcVlyYTI8bpLC5S3DZ/ShmUsxbk1Im+EJwM1KyBVOO4rns0slk5guY3BwQc16LadQVlUggEivOofTImec1bQ3xRfLD4bisuTDya8Wfi9SgvI1hVpHG3vQ3VfEywWxSy9UzbA+1YSC9cpieRVA9809r6PSRD629xxWOPHqtsubcRX3WeoT3LLPdSPjj4oeMSStlmJJ5JqRItTksMk7miFTT9q39Oe3ZUX04z2qSyYpIVzsaYDXE6XDDigmhQ5jxkAVc2hxCnxWdimDKh7Vd2cnoG/HailFlHJgjajFY4BIqujYE0WrbDY0AWj4ODvRKuMDagozmp9sU0iNYx712Rjeo870udQp6BSwFJr++1JjakK870aB+oHvTRjbffNIqe9KBjjamVIVHfNN0gnfipANt6ay7bc0A0KBmmk4HFOI9O9Ltn2oENIHcUxvY1KxINRMDqFBmsB3FREAjmpc81Ec57UgiZRgk0zAxvUrZwdqjb3A4o2DCgB4NKqerNIxJIxSg7GjYKyD2GadEuO9M1H4p8Tflrn2pGfj1cbV2cHAxSagedqQsPakZx3+aUN+lM2ycc0oIA3zQDlG+2wp/67VFqri+QKeyTqSGFKdzzUKtUyY996Ng4AacYFIyjA24p3BGK44BGe9GyROiEgYFOEMTHdATS6l1EDmnI5Q5QbinsI2t48+pcEUn4aMnYbVLLIZDls6jTR3099qe6EQto8kDilNvHjapA2D9qXGae6NIRCu2KXyQaeR6hinLvtRstIhbgb5qQJwO1P7UoG4wKNk8rvDmQk45qBfUxx2qe8BM5pkO1cbrPi3I7VYRKnltqALZoKDGd6MQgRsQeaRlIXAB7CoXbG1SOdSj2qJ8aeaDNU74JxmnyIVQYIIPtUa45qVRjvtQHLGcfNC36kSAcnGatoUWQDNAXY8u7YHfYEUB3SyRDcFvimtpyCOals/wDImIOD3oY/WO5oJOGw3IoiPfcb0IB6sniiYiQc5wMUAWR+Xmh3HpyMZNS7mLbNDk4GMk4oNzZBXIopDhN6EPIJPanlzgbjigFYEgkGhZzuKmz371DKRgEH9KAimiJXUByKkgbNvxuKIRA0C59qZBDohf2zQFXGoW+Y77rXSk7k710TZlPuARSSbgjNOJqGRsqfipukf+kbPdqHk2QmiOkD/olJ7nNO+ii1jxpGKUjYjmuXZR7U7Ixxj7VKkBOSccin2u0u/OKawUg9jT7QDJOM80BiOtnPUrg+7mq9qN6sf+vuD/rNAtXRGNIKXikrjV4klFOIHtvTV2NKN2+K6MU05UI3BwaVjkb71INhUb41VonZYjkj4p8udfttUSNpOeDTpXGrApylpPnCgCmyTFF0ru3+1Nzpj1H9KbbH1HV3o39DX2hZnc+ok1NE4PpOxrpVxIaikHcVOriftO6lW1DtU7S6sfaoIm1oM1HI2DgbVnyT7OJIMtNjOajaVllbOxBqe1aJRjV6j3rryH8zUu4PNc9qoNtLpXUK5FHIqdiBWeWI4JU4NE2160RxJ6gO9I2hQhRtuaernihYbiN0VlI01zXKbkMKALPHvTXZc4zVfLeaR9WT7UBJfyyH0jA96ZbaqxmXUsWr1E7VoYm043zXn3RHZeowliSc81u0IO4NFiftZxSHY9qsY31IPeqiA5UGjom2pKGqTt3olW1LnNAknt+9SRsQOTTTRwO3NOVxioFfbmn6vT81QTAjtSAZ3qJX+KXzOaAm7804EYqBZBkU4yrp25zQEwGeK7GPtxTElFIZhjGaC0c3FJ/akLDHOK4nsCMUCQ1jg/pUbMCabJk5IO9QAP2bFBpTgEmmYGN6b6t8kGmnJOM0gfyeTTMD5FKCOTXMRvg0jR6MCmkc1LTCCRxQCAYBGBtXDYAAcUrjAO9LjfmkDd6Uc0pX5pPfegy5/ekPPNccCkyD2oDu/P6V3FIOeacfk5pk5TvREfbfaoBgtxUyHkCgJgd/mmTvoTUx2FKuSwGMbVXddcpAi8ZNHoQJedYjtlaRtse9U/8A40w5AhGn396pfEsxZ0QtoX3qiCx48x7gbfygGo8laj1TpnW4eoplDpYDdTVojAgc15b4dnZb0MhOMV6XZuWhQmrlTZoQMf3pTgDikrhuPmqIgJJAxS68Hjb4pE2Ykc0h3bfA+1AO1kjanCTLb1GM5FKM523oS8vnYmQt+1JCT6jimTyEtg0qH05rkdgmHYcc0VjCb0HbnJG1GHdMikZjnAGCcU1j7UuR35ppbjHJoBQce9SqSe+ahGRUkW2fttQBlu+MDtVf1Jvztf6Zo63wpANVvUv81h8mgJLVgIZW98VEzqzkjIqa1A/AHIwSTQgUasA5HvQQg51Lud6Nh+9Ag+oZJxRiZC5xQBIOY9yftQz4yacrnG+ajzlsUGaw9Q3ztXLk9uPelYerNJkb5oBMkbkUyTZckb0pxpz81Gw2x70AXHJpijBznHapC+LWRgCRih1ICJnsKkZsWcpPtQFDaj/qpOeKnbuOaigz5zk44qUkmqiKGl+htuBRPSf/AEEe3NDT/wCW+aK6Vt0+Ee4ovoRaJ2+1OHHFMj2GPepQNsmpWicaV3HNOskAyc7YNJNuSe1OtyRGfbB5+1AYDqn/AK6ff+Y0GaI6gc3sx/1UOeK6IwJXV1diqhJF4pyAk02IEnFTY0104ekUpbSoJ3ppYMM4pramwFprKUq7S0caQ74YfrSeWx37UqjTtmp9n6SMdZVOBUwXHbioW9Ok+9EqcqDWuMTUcn+av2qOQYOCNjUj/wCYKbOMLqovoRHD6ZMe9Rz/AF+9PP0g96b5TuNWnb3rm5LNaXjN1GgyaLmkxp0jG29RrCwDH+kZpjtqxXOsVGwYUyWIjcbj4p0ZQWROfzNW1RfiWC4xTBUlaLIApwuGK400K0jOSSaTJB9qNloSQXcZ3PtVrZ9NllK6lCKfeqSOR43DIxBFH2/Urt7yMmUsc4xnanstfxqLKyhtmyoyw7mrW2dzwKBLBZF2+9WFvcIq/TTStrUZjGeaNgO+9VUF9HsMEUet1F2OKWqpYgjYAU9fihEuFyCGBqcSqR9Qp6SmOc7VINRHGKHEy45FSrOp5Io7CTBzT9II9qjEoPJFKJAeD/emD9IXal07UmoHfIrtW3NMHYGBvXLtyM1xOKUDIzQWiHYcA12filIGCaY2KRmPgdqjBHNPYg5Ipv25oBNX61HnfinEZ+9MYHtQCg5OfauySN9qiYHO1Ic55OKVCXPNcDk1EOKQscb7YpGkkOVO++ac4OT7UMCdS77ZonbtQDBjcE0ueOKUgZrsDNLZmknNJmnFcHc0mPamWnDJG2KVu2aQbGlA1UA5fqqeMZOcVAp253omNsAb0BMi4FB9VtTcwgDZhxRgYEb05jqGBjagnnfWelPLnUh1jvWbfo9z5uWiytevywK/1AZoebp6acLgDG9LxV5Mb0LpDqwYrgd62lrEFjGBuK5LYIgUYFERrhBVSJ2a32rgPV3qRQd+KfjftTAcjGTmuwPipCmc5FdoHGKAi2BGacMFu9cVyfscUug9jQl5LdZE2DSIcDmorti1wTUkQ9NcjsFw5wMGjA2EAzQcQJGOamxtgdqQPQ5I3pHOTkCmDO4pd8fNBuJ/+6mhAbcmoMnuMUsTEA4zzQFgoUA5Odqqr1t8D3o5Tnb371V3x/MO+wNAHWxAsG1HfNCg+rbmiIMHpZOO4waBJOsHtTIYPq2otGYpvsKrg++TmioZNQIFAEZIwDnFRFiJMZpxb081EPqJIpA52w2xNcW22G9MDHWacTz70GjZuM12ol1GBzSMeOK4MAwOOKALkTTpHcikfa0fJ5rpmyQSKjmObZhuKAqoMiaQ/FSk55pkS/mOV9u9Kx23NXEUNcHCORxii+mqfwUGfahLo/kyYxxTLK5l8mJUUkDbilfQi/zweKeXwOKgTUyjIwcU8/TuDmpWdM5WME9xSwOWiP2P+1QXQYhcHalgwbdxnfSeKAwl2SbhyfeohuKfOfzX+9R5xxXTGBO9KBmuG5qRa0xhU8AKo96cBqO/FRk7UTpBQAHG1dOLOmx4wdJxXPHrP1CmqCAQKTQ25qyO8oqux2pgAJwc5qRGYbGpNIkHzRobQ49OP2p0bkHS1RuGQ4O4rgwYbnelvQ0nbGoGulOqMimLnGDSP7Z5oyuoJ7RQqW9TH0ip43Jf1klAOM1GxAOAdqQsulgQSe1cGXdbzo+Z/SxQkatsUN2xSlsjFJikTgcnFOGxx2pp2bGOKdIMYKtnI7UHHOvcVGakV+zUun9QaStbRZpY3KMrKcEcVxTuKbjHNVtOq0/SuqfiSI5yBJ2PvV3FLsR3rz9WKsCpORxWg6P1TWfKnYauzHvVSs7NdtVA2cEGjI2y2DxVVbODgqQfkUfE4096oh6vg5xRCMCucUBGd8Z7UXFspFASlvau1b8nHtUJfBwacrEjNMJ9WOCakjY5B1GoFOSamj7Z4pwJwxLbEinea4P1GmKCBzTWPr+KpIgTSYIDN+9cLiQZ9RxUPP3rmz22oCU3MuPqxXPdSAA5qA8ZxSsPTzRoJBdyZztj7Vxu39h+1DMSCNq4kmjUApbs7ZG9L+MGCMUET270oDYJpah7FfidztTXu1H8pqAIQDmopMjml4wbFfjUHK0175MbKcmgWAPNNPOM0eMGxBvxrUBCDmpv8QI2ZM1WndxinP2NHjDWX+I7bptSr1Beymq0HPfanxjel4wLA36lvpNKt7H/ADDFCaRvkUhQZyAKPGHscLqPIpxuYtP1H9Kr8ClCgGjxg2sY7iHnNFLMpxgiqdcYOKkDEYApeELa6WVCeRmk1qH+ofvVSSAOKj1HWBnajwLa/DDPIP61zMDsMVVg4wMnJp3qAyGP6U/AbWBHyKTOTgGq4u4I9b/vUbSuGJDt+9HgNrfGkZOKTO/zVP8AiZcY1HFd+JnJGGomFG10GYgk1xztmqqK6mAO4z9qlF3L3x+1HjRseMnNcBjmgDdy9wv7VxvGIyR+1Gg8quAA+f7VLF9GwrryMLKTnfNJEd9q4nWNtyFAOM1PIyHBGB70MhwuQak053pGeCoxT9QI44qMA87U7BCbgUA0kEZzT4XxttvUehvYUsaNztQBJ5O3aqy8QsCR71ZHOCaDlUHtvQSaHA6SV4IagyDttRmkfgcfNCE4fA4ph2CG/wDuiYwFGagXd+1TpxigHsc8U1c6udq77bUi5zmgO31kiklc81xYAnHeoy29IzWJON6R2x33pGO9RscnHvQFnM4yAMZApkrr5Bz2pkpGQCN8UyQgxHHNABofzH08Ure1Mi3Le+aedxVxFD3ORA524ou0wsEapttQlznyX1YI70TbS4iQBSTilTxGqxGD/en62djvsKakbPjX6QO1EKgBG1SpCclcE52psY028pHGk/FTH6W+KYqgdPnYnhaA8/fdiajp5OGNN+K6YxrhSg7+9E2toZTnFS3sCROsajDAZJqsct3UFxsm6EUE80QPpHuKiACnJ3NPMhzwK68OmN7KSe2aaCBzkfNSoTsTg5pxCuNxirJGMgc5FKjAH2pDGy7qcikIB+oYpXLQ0lbDc1BJF/TSrj+oCpNGs4Rwf1xU3OU5KHV2XZtxXZbOe1K6kHfP7U1dzjPeufPPrS5CHcH3pN8H2rmGCalnjWOOPS2SwyfisVoosast9I9qfEuuXPYbmohsaIH5cJ/qYUETVG3mM2x7VEBmmn+9Pj43oVj2aRvTlbTseKcw2+1NIyPmkvWjuOOKQgGuRtsGlIxSM3QCDimsuO9SAUhFPYsgiz6lc2oxG4K+zb1d2niRcBbiMg/1L/8AFZkjFcOdqrbO4x6RYX8F0gaFw2P3qxWUBQK8tsriW3uFaBypyM4716Hbza4UZsBiATVy7Z5TSxLgkZpyMCD96EV8kb1LG4G3zTSNGcVKj4ffihVbB5qWI6n+KYHxsG+3amcnfsa4EACmM3zVbLR4O9O3Peoo33NSj6TTJzbCkO4Brid6RjkbGgIzxvvSHneu770mcmgF78U9T80zvtXZxQErbAUNK3OOaldwcfFDsTz3oPSIn3zXHYc0pO5pj8CkZoP5oHxUlRRbzEjsKlY9qWwVamjAJqBcd6IiG1IHsQF53pAdvikekBwKoFIGa4bHekHNKBv+lASFgBtvSBsrng1FnTkg05WzyKCqVSc/GKRORt3prbbg0+LJO+KAOXcAmnDGnbmkRxpxnNKzDQcYoIyQcUOxGrmpnYBed6FPc4zTBwG/608Lk701c5Hapk533FAKijYVyj1qFGQacNht96ZC5xv2oCRwB8Go2I0nvTpcsNqjLEKRikHnE4Mly2R3zUscYDHPFBvM4nYZySaPhPoGee9cDsTxgaN1yKkVUJpvnqsfGTQ3mkvqz3oCwCqEORU2hHiBxhhyKFjYsM96n1nA3HFIykRj6M+1KFXOcYqPXtjalLj3zQHSsuDjjFAuRqHqzRL6WUjOKryMTECgkyMfw8mSdjtQmSAATRMIJhkHsagaMk+29MHRsfM7ftRanY7VDHERIMEUUEPFARk7bU1DuTUrQsEDDOKjwwB2pBEx9R9qjkJGMHapdPqyainOCdqDRuSe9NDHWp5+9LkY3Hakz6gMUAZIxBJ74qF5diD39qfMQN/ig3O5xQR8YGGxsSaU4FMtzlHz/VSv6s71f0kjFHjlU8ac/rR/TRm2UkD74oC2UMJw420bfvVn0kAwRj+1TkeIvGwp2n1bEYp7LuK4INZ7VK6gkAVCagvjo6POVHbeiZhiI/ehusnT0SbG2acL6YSCBriZlTkU14ijkEYKnBqy6FGTPIw496b1WDy5NQ7nc1tajGSibBo1VSG5GCPmpOqWpeMSIBrXn5FV1lFI5GkZA3q4tpTLbMGxqAIwaiZXHLcbWS46Zskk4O1LkDip7i1ZfVtueKjVAOeK7Jy9OO46ujVyxwGOalx5YyX/AEridC4GNu+KGlfJovLS0kknPCmojIT3NMAzS4xWdytPTtzSg4OxpACeKcEqdml8xihBOc0wbUuNuNhSHjFK1SW2i86YavpG5NRyaQWxwOKWMOFYpnHBp1wqhU077bmgkHJFOdyzbmmjak5oBcd6mTYVHHuce1S0q0wjsZphGN6eK7kUmiJhvkU5X2w1cwwaaQD96adaSYpMU0EqcHin7EZFIzSPemnA7U80lMqWIjzU0ZBJFbmA/kxg/UAM1kuiwCW+XV9K71qgSd60xYZ/wSr4PO1ERTHIoEHcVLFntTQsRLmirdzqGarkO9WFuPYU4Y0yZHNM1bVGTXE7fFMj0b1cUSrenFBod+ajn6nZ2/pmnUN8HNVKB0jHUPamkkA96jSVZUWSJ1ZDwQaU5wd6aXasAVwOx3pppPegzweKXV70wDbmuBoB2eSaHdjv8VKTzmoJCBmlTN1ZO1c7dgaiQ/NKe2akFg/zHOaeG9Q9qji2LH5pyscncYoCZdzRKbcmg1yTii0+nJpwObnnamj96cR702mDl5PtTkGxIx+tN7dsUq8b0AjgYpq5HzTn+mo/gbUCnk1Lq0AHFD52qVd8fNBDIW75zmnswBIPf2FDxbbVJ3xQRsv09/ikVaR9zzShgi5NMJQMfelUaRxmmr9OT7ZrlyfigJQdqRMAdt6RTtvvmlOMdqAa5xwaQDI3296axwO2aQsQhxzSDzWBP+plJAODR+pcdgPvXeVGCW0nLc4NL5Nu3If9zXA69hPNVGIZs5rkZcfVRDWdoTtryfmkWygUf5jD9KBsqS4Jw21StPgnUTxttTBbIu6yEj5WntGHQAuNhtQNoZbnAznmmfjCDgDJ+adJalvpZcfemCyl5DIc/NA2OifzUOSAcVEkf5w3G596db27ImGKkn/VT1gkVh6VH65pGWSPyNY5JORUCuufUO9F38UgCGMawQM4NV5W4J3hY79hTCwjKg8A981MjAsMAHPzVX/1CH/Kfj2pRNKCCUYH7UBfTALCAQBVeyEkAcVHJ1JxpDDIx/TUY6iM4KfrSBrZRyGBx71xKFW2p630BYa07+9Mee2eUkZAPagInRBge9RIoDL96keSEsuCcfNcVUFTrHPamEl7GQB2H2oGVcE771cXej8OmJFOap5iAG33+1ALCdNu243ak1bc0yM5tv1prN6fimlMm6TsDwn/ADVn0g4RDVQGKwSgDlf+atemn8pfcClTxWbH1c0jfUCKQHOCaVzg/api6in/AMsD3oPrrf8AkcqnkmiJmAA34NBeIzjpGO5NOeyqn6OipFjO7c0zq5yVQjJJqXpJSO2MjnmhupzKbtSNwADV0sYsemxaYO2TVLeSOl/KIGIGd6u+kyebBcSSbCNOKzjkFmYcsc08IXJbj0c7vI2GOQKTIUVKAFTtnFCyvk4BrZibI+aYo1H4pVUsduKcxwMCkDWwOKZuTXHenRjegHJnGKeBtvShRg1zEkgdhSUXWQmkDmoz6mA4FKcgUnqIBIoJIHZI3VTseaaZMoq4wO5pjb4A5pCcDGN6AQ8136VPbxnUGfZeRmmMwDsV4oCOM4kFTnmhs75ogbkUVpx/w6kruDXH+9S0dimFaf8Aeux7GmEfwa4EpxxSstcDRtJfqGRSUgOg5HFO+3FI0lvO8D64zg+1aTp18l1GMHDgbrWXro5HhkDxkgiqxukZYytoH+1TxvtWci6sXjHpBfuOKsLXqELplm0Ecg1e2Oqvoz6xvR0UgzzuKorO8im/y5FJ+9Tm/gtmxLIAfbNOUl2JKR5QqanICjck0DBdRzrricMnuDVT4suWSwVEYgu2+PansaV3W+vzT3Dx2j6IV2yOTVEzszFmJYnuTTT/AGrgP1qLVtH4S6q1tdLbTN+Q52yeDW6LYxuDmvJ4CFlUnsea9PiYCFCT/IP9q0wvTPKJdXqx2pxPNQK/q7U/zMVaUmfTXE7c1F5lJqznegz2bYjNQSHalcjfeo5D6T71NNEjeo+wp7Ntmok2z809jsaQOiPoJHc0q8j2qOM/ljNOXgUASh9W9Fx7oKr4/qFGofQKcB534pO9ITXccUwXbTmlB2pp4rtWKAVjTHO/tTmOcZNRt33pAm+QRU6Hj3FQDtmpFOBvTCeMnual1YzvQ4O21PDAA7UFSsxJriCQQajVtqcGOfg0yEYyBg7Ypy49+KYpzjtXZOfigJDxml4x3qNSTnO4pSc43/SgI3GWNLn04FITlqQ98UjYsbjY7UuPfiofx0XBgf8AQUovoM+qKUf/AMa4XTqpQRjauz6c42qP8dagfRKB/wBtKLy0OAPMA+RQNU7VnI22rj9q78RZElgxyaUT2ePVJj9aQ0jI9q7PbOKeJ7LG037mu/EWA+qQE++aAjBOc5NLrbOzN+9OknsvTolH703z7TOTJn7UGXU/Adv3pC8g/nYfrS+dbkAh6a0kJP10A7zZeQ5/em+dN7jFLriPDUn5Z3LkfpQZwupl2whx7qKX8YTkGJPvpFMKRuR+bil8kZ0iVd6AU3IPMSY+wprSoTkRrUgsvaQH9aaLMg7OufvQEWYt9UW/3pp8sj/LP/7VIbV/6l+2aaYHA5H70FszVEx3Vhj5qBxEWwS2KkeJ13OP3qEjOQRvTkLZGZQNKg4ppAK0jjBxTdf8p4oBZZD5LY31DTV70tAIQCKozgIBtvV7YjCNvnalkeI4cYpHzvncYpoORkU1mzkVK0dzgwAgb+9AeJNukxj3bFHXH+WozgVXeJmx06EFseqnPZKzymisYVXhuc0DcxYuVBIORU9xcB7ZQGyFHamW9lcXBSRF2J5JxVLx67p80rWtpJEvEuAf0quUbjY0X1X0XPl/0jf70KucVrhNRhy5eWXRk8mDgc0Pksac+Wc05EqmZ6DAxUUmQTU42NRzLnjtT0EOKljG3FRjtREaeg4NIylgBkDcVGP7mnEdqQjFIEc8AU5S7DQoznimoM5yKmt51gD4/wAzscZoCIwSgE6ajIIO/NG21y7yhBjU3vQkqusraxvmgCPMHkgckDFCNxUyD0n3pjDVnFHo5NoqITgVDpqaP6aVaYTVOIpKdj5pMbUmjq41wrqCNpp52p5Gd800igEpF2ODxSjbakYbUJpeK6kU5HzXcU9E5QPqBNdNIScZ2rt8U0jJ33ps6dBI0Tao2IPxUhdpH1OxJ+d6gHOBTsGgljY381lIGhb0917V1/fS3smqU7DgCgQdqdnansH5yaSmg+9NY0BPEVEsZc+gHetzb9csZFRRLjAA9W1ees+oYppNOZaKzb1GO4ikP5UiN9mzUhYk5HavLYpZEPokdT8MRVnbdYvLZgUl1e4bfNX5p8XoAb1DNOzk5rJ2vigMQtzFj3Zau7TqdpcgeVNv7NsarcKj2bvTJGwpJ71xYcYzUMjZNIHKfT9q4t6cd6jVtuMUuRzSCRR+UPc04HYUwNhADXbYphNH9VFqcCgozlhRakbU4EgO5zS+2aZnfIrs70BJke1NJy1dnemnnagHEjO9I1d3puec0BwOfvTxxvUY42p3aiBIppSSQaYDxXF87djTgqQbAU5TlhmowfTTk2NMk4PzXAmog3OacG52oJIuffilDDOc8VH39644298UA4nfJNcW25pmd+aa3ApKZcwLyDg/amG31NjIx71PnHNN1DWNtq891GraDTnnemvYj05xg/FFeaNJGQKjeQ+WMb0AP+BQk5wP0prWKgfyn9KL81MYxk0rODwN6AE/w+NtzgfpXN02MAkKCPtRwAzyMVzNkEZ2FBqodMjbB0g/rSr0eIDLoSPhjR8Oc/BqYAng0BTno6N9KNjthjTT0Rc7q49/WauUR1+lu9Seskb5HejdDOnowz+WZMfc1w6O3HmyCrtg+pu2/anoJMbUbpaZ89Il1eiZ8falbplwMYnk/wD1q+1OGPFPV2xuBijZ6jON028H0Tuf0pDYdRBAWTNafOTnYCpFZjsAMZ5o8qNRlXs+qrjBU/GaaYOqL/KhH/dWpkZlbAUGkDZG6jI9qPItRlSOog4MKn9aTN8ObQn9TWnkYABsb8UzWR2NPyGozJF4ThrN8/Gaa/n4Ia0kz29JrUGQZ3JprOM4J3o8hqMxC05kRHgZVzya0VpgRc7ihbkiW4TBAwasbeNfKb3pW7OTR4bPNMkI3wafgADeonxuKRkmOVXuaqvE2/ToQR3qzc4C78VU+JD+Tbr7t/xVT2ml6JZ234DVOhdmGcUfatmAgRukae64AH3oS0uI4umeezaUTtjmoOpeIVu7JYbWMxg/UacltTclLeMJ7yV03UsSPtQ4GFOx396ehGjJB5xtXPxgVvGVRIoB+a47NXHO4pEPrphIBtvSPgnPNLn0000AwqOQNqejKE35ppOV0+9Iqlmx2qacTKuTqpkzDXgDcUpfQmKg3LZNBnatiOxpvBzSkZrjxmgiA4cMDg5ouecSFQq7Y3JqCOMlhnipJI2wCFP3oCUhBASeaFT68ipJWxEAKbEAxGKWTXim6ntLOS6vY4I+ZGwDW3tvBtlKWhEkglQepsf/AHUHg3ortcJdygjf0D/mvQ5rXA1RYBYerHJqdnyXV6eV9T8I9RtHY28f4iEcMvP7VR3Nlc25xNBJGf8AUuK9rF3+AKl8GFjgk9ql6rbW7W34gLG6ckFQdqaZyV4McDYncUnFeideis7qGSO3towwGSwGMV52PmheOW3ZNd2rsV1BmkUlPppFBIx6WpxFL5byH0KWx7UXB0y+mUGO2kIPBxT2ihEG1dp3oi5tLizkCXUTRtyNQxUP2ps6bilxS4rqASkHOBS9q4H1GgOJwKjY06QjjvTFUntTBMEHilAzUqoO53puccCgOXYU7tvTSds0o3oDu9ORmU5UkH3BxTDzSg/FAWVl1a7tSSrllPZjmri08QRSbXKmM/G4rLZpwORwKe6Wm3i6laSbCdM/eigytExVgQO4NefAD7VPBczwHMcjD7nNPyGm+ZvSBXKdqA6dcvcWUckoAc+3ejEPvuaqVOhUXPHaiVagoiMneiFOBtTJPnelzvUBO+1KrH33phMGxtTicio1O+9Oz2FIOpCdvmubYVGxG29ASAnI9qUEnOajT4NPHNASc7ZrgO1IDj9a4DA53qgeOKXFNONjSqTTI7fO9KD80neu770A8cD3pf5vmmjHalXBzQIbuSK45B5pXOMYppJztSUzK2dwM5uWA/7RXC3u1GVnyPlBRpEwAA/fFSqZMAHBrgdKrMV+P5kIHxUbPeAAFYyB84q2JIGCvNQsVOwO9IK1prlTkwxY/wC40q3U2fVbofsxo4qMDIBpAu/00AIb1+9vj9TSrdjfML5+BmjHiH9O9IYDjIX9aAiiuE7wzD/+NSi4jUbxzZP+mu8o/wAuc09NSsAyZoNE08I5EuPtXG7t9X+YVwO9F/lMCMD9aha3DZCqpoAY3NuQT54G/vT47m3Ix+JQ/rTJLYKDmPf2xQxiVT9IH6UAd5kRJxMv712QQMSimiCJ0DaN8Uv4KFhuD+9AcdRP1A/alXzA2QeKRrO3XA3H6moms4sbM370BOzyFtxTVZxnNQNZrn0yuPim+Q22iYjFAEtIcDbNN851OSM1AIJ84E5J+wqQQXBB/OOf+0UAslxnGVqMyDOWrvKuMZL5I+Ka0c4HqUfegB0dXlDd81aQN6Oeaoo7gjqa27qo9jV1FsuMUWCJT2yajbBySaUnYZpvakaF8nB7VUeJpPLS32yQeKuG4NUHis5khAParw9py9JLq4iPRfJf0s5yMVQFG16U5p+pigBJIHFMhc+eCK2k0xt2kVXTZgRSlhnfill8yRyRnFRFSO4NUTmNdHgEmmknNLsKAkbimE/NIzdhSDck0gUDbYVadMt4WsriacYwMCq2Pdv0oxTJPbi2hyd8kCpyXAMrAkaeAadEjSOAFLA+1a3wt4cW4dhfREEDKj3reWHhuwj0kRKMVnlyzE5jt5cnQOoXLARwFRjIzUR8P36S6JIiDnFe9w2MOkbKCBjYVHN02F2UkAkfFZ/nV+NlvDfhGzsraOS4QSTMMnV2q3uek2xQgQRFew0ircQgY9qYwZexIrO5209PK/GHhdIomurKMro3ZPisv4esDeXYDbID6q9uuYkkDK42I3zWMueir06YNar+WWya2x5NzVL/AF7jT9DhjWJVXACjar+NAAO4rGWU8kMoznSdq2Nk4mjQqdyKNlVX4h6S1xYzCDdiMgVQ9GvTLbS9OuWIfGldX+1eieWAoGcmsl4l6DLK/wCLs0xMu5x3qpU2MlCq293JZ3pw2rGfcVn/ABL4ca1ka5sfzbYnJA5Wtb1G2kvIA80Jiuk9/wCahLC4ktZAl1EWhbY96Yl1WHaz8u2idkIL771FJahseWd/Y16N4o6QkvRlntVXEXqBHdaxKpqUFeaXk1DWHRb29LeTEMDu2wo0eE+oNjeDHvr/APqiLK5uLQjy3OPatd0PrVvImifTHJ896PJOVsAdJ6CthFGAYy/855zWu6ZawhRIEGc7bbCuEEcqaxjHxVhbJogUCnGGWSu6v0W26nCVnjBbs2OK8s8Q+G57G6It0LJ2r2tduefaqDxTErQhiRrG+Ke9FjXi0kMsW0sbIfkVH32r0+5sYb6yw8Q1Ec4rG9a6I9sPMhU6e4HaqlWoDzxTeCfepCOajwQTmmDRnGa7UaVaUjvTBAxpOaXFcPigO7GnLTc9q44AoDm2poalpNOeOaAeDmlHvUQyKempjgAkmgHbinxKZJEUdzTJA0Zw6lT7GnxA6g24AoDaRgRRoijZRipVkOdqpLG6DD69z81ZI+RkMDVTJNiwil3waLVwRmqqOTA4FTi5VRuDmn5QtVYas4NKDt80PBJ5qZHHvUwyBVS7CeNiDvinZOqoNX704Oc80EmY7d6i/m700nIzXBqQ0fnTz3pwNMByM05aYTLvjHand9+aYM04Hf5qoCnanDbBBpuduDmnA7/GKZHHkb1wye9INzXZ+DQZw2PwaVabyKUbHbgUgVsk7cVHKTp2/anZyaZLwOaQVRcled6ZrY5IOG7imKM7g4pJfMBBQGuB1p45mPIzSMgJORg96FDFiQDilAYHJJoB3l9wwx80gXG4NSJG2dxzTxA2vSBzQAsjMSCGz8UgkdTycUSts2plOdqeISVIGMj3oAZbhgPpqVbkbHAqQRNnOBTxFvkDmgIxKrkj6TTfM8qT1cVLLEu/Y1EUUjcUBI8gZtjkGmy6dH0700Be+3tXDCtjc/NAIJPTtsK7zBgEEfalIUHY1HlVbOOaAe0mQGA2ppfgjcU1pDnC8GkAJGANqAR5MHfimCTPAGakMYbY812lAPTnbmgI3dhg7A0sc7A4PNJJCjblmFRmEDhiaAKEuV9qjllBQjUKgZGA7momBXJAoCuVBJ14MD9AzV7Ex0nNUdln/F7hif5f+auoslKdESZppJyKXtUbnPFIEO+MnBrPeKmDTRaWBGO1X6sdVUXioYvoVHAQVWHtOXpTNsoB70kSHDN7VMqK7EMwXA70WluotueTW7ELqYgaieO1NdcjFJn1ug7U4HOBTCAZViGGaTVnNEFMjPBqDSMkcUgSpARp4xT4Lae4IEETSH/SK0HQ/CXU76ZC8DRxg5Ooc1OWUx9qk2ren9LmuiMAge9egdD8LQBYplGJgN/mtb0zo0VrbpG0QJAAO1XdpaxpsExXHnzb9NscFXbWIjQDSM++KLFvgDarGYR4CqPVSrHtWHntekNnEA2X/arCK1Vxlhj2ofTjfipoZiBgmppo5rUKdqDuU0psMmj5Zsg1X3Eg0MO9PGlVXPjJyN6CmtvMU54o0jV6jzxSZwCMVtMkaZ9gLd28zBX3q66LcIxHkuCCOKrepKGQqRjNee9cu+pdJuMwOyxnhhW2HaLdPdoZTj1bU6XGg5I/evCukeIuqGRQ94zBvftXoPS2kuEDP+b7+o1p4p2O6tDC7kq6BvbNU2kI5xg/BFXbQsqsws8g/eszepcpMzBQgJ4Paqia0PSpRPHJFJGNGMYI7VhfEvRT0q/LQqTayboew+Kuek3jw3QEsgOo4wK0l/Ak0Pl3UeuCUYz/AE/NZZzVa8eX08uCc7b07SN9t/erXrHSZ+k3BDAvbMfy5ezCgFU5+DUtVj0jqdzaDSTrjB+k1uOmdTt72FRGyrJ3UnevPYzkH4p5LR4aNyre4qplplnxzJvOr9Zt+lxEu4abGyLyaz0hmvYEvrjUgc/QaqrS+WKRnulMrnhjvVg/XYp4liK6VB3z2rSZRjeOxfxiGS0A21Y2AqmuIVlLqw9PBo+3mge1Xy3BI5xQck0cZKkYyaCkrF9f6IIyZLcc74FZt7ScRmTyyQOa9Iv50lkWFSAGwM+2aO6n0zp9t0+PAHmkDb+o1W1PIBzThWvu+loC3m25TvWbvrKS2YsRhCdiarYBU0mkJpO9MHVwx3NcMcUucHfigFH9qWmnHNdmgHHcUsTGORWHINMzXDigLjCXlwsj4CgUZm0jGCATiqCNjthiKsreIMA5GRjvSpj4pLPPpQA0WskRA0j9qBjSPOyZoyNCBsu3xU7ORLqAH071Z9E6W/UHeaUlLSLdm9/im9F6TL1GbYYhTd27AVf3l8qRCxsYtFun83dqzyy+ouY/1DcIk0LpbqAsewAqhe5aOTScEe1aVWeOzLadiN/msrPoklZkbO/7VeFqc5ByXKv7A0SrDjuaog7I53oqG6wPUcjv8VtMv6zsWZPamat/ihxcKR6WBpdWTtvT2QxH+akU+xzQaMOKJRlOKeysTZIO/FOU9waiJ35xTkPzmqJMMjFP/m3qNTn709dyRTBc4au780vJHcU085zvTB3604bcb0xRnninjg4pBx5zion2IGae7adzUJcHJpUKhLgYBYbVKb6NARpycbUHkjsMVG8gIO3FcDqTSyLKScY+1NhfOQe3ehw5XccVIGHbuKDWS/QCGohXBTOQCO9VMchVSu+1OWc6McUBbCRCCTuaQOmNtqrRNscUxJ23A4oC3VVPDZrsADPOaq/ObAwcV3nuBycUAfKh322oYq2PpqHz3KkE7UiTt2OfigHtqH8tRNrJ22qX8Qe60yWcZxpxQDMNjc05VBOc02WXAGFpwk4OMUBIoGjAFJvp+a4T+wI3polUNv8AtQCmQjBxTSw18bGm+apb49q4SLzvtQHZ2+RSDA45pDIpBJFRpgHIBxQEhO/NRvuDtSFiGPtSF9QOcUwqOltr6lc532xV9HsvtVF0sY6ldkNt/wD1V7EfTnO1FELj5zTJOBTyBnINQueaQcm7AGs/4pJHUUx2QVoYd3Ws14qbV1IY7LVYe05egVlbzX04VOx3Na5fCt21vrglD7fSaz/Qr2K2lj1Y2bfNbXqXi+CziC2/1kZwta7rPTB3fT7qyuWF1CyEnuOaixjsM1d9R8XXV6hSWGJkIwMjcVQm4QKCFOqnEpVQkHbirvoPhqXqrq22jO5FZwSPNOig6QxC7V7t4J6Wtt0qBcZbGSaz5c/GdLwx3Rnhrw1a2MCaYl1gYO1aaOxjUekY+wqa3jCIPcVPsK8/LO1044hTbr/MOKWRVUbYzUkjhQTihA2t96z2pH5eW1AUSiNoqaNBpzTl01OyCMpPFQlMHI2NGOo371Aw3xVANKfTzQU/qyasJkBBNAMMMwNVimg1OTjFLpwDnApFGJGzUF3MUTbmtZ2lW9TZS+x3rM+I0Eli+cagNqupw2WZ85PFUvUpPq9WPg10cftlkxdvGeVYbVqvDnXpenSqkrFov7iszKpS6dgTpzvT5iShKnf3rq8dstvX7XqsnVIG/CsUVdiTzVdf274Yr62Pc1mvBHW1RWtXYeZxk9xWyfLKd8g1GtFtUWFs63KOcA5rYXlm09kG2ZsZ2rPL5cTAyOFFaXpF0s1rpiJZeMioyaYVTRGGeFrK7jDwPtvyp96yviDoU/SW8yMmazJwrjt962N+CtxpZVU52Pc08yy2jBJkD27jcNWdjeV5f5uSQNq4S6vTzWy6x4Zt72R5+luI35aPt+lZTqXSLzpgD3CEITjI7UlVAyE4HFE21k8re2eTTLRwzAHBWrOO4SEnTwRijZaTQQCCI+WQSNic002yu350pwN6EuLjSwIORUKzllJLbZ4o2Wob1qCOK2Z0yD/K1Ulve3Mn+ZKzaeM9qt74PcW7jVlQO9Z+3l8ubTjYnFaY+kWJrzqN67kOxce5qpulluJNUkhJ9jWj/CGRBq2J4qsvLQW5OXJIpzIripzaPnC71EUYcgir+3IUDK0FLjzCO2d6uZJ8VZpNIVb2q4lhRVRk3Ujn5qWxtTO4CgH4NHmPFRYIG4rjWhu7RIYiHj3O1B2dpHNOFYbGiZjxVNcDitRL4ei8hTG5EhPeoYvDjsMySgY7UecHhVHGpYgKCSauem20r7S6go7Va23To7VBhQdufepGwDkbCpuf8VMP6fBAkK5AG/erDpfTZeo3GmPaMbs3YCmdKs5OpXCwwg6c5dvYVrLnybW0FragIi7Fu7Gs7VyadMy29qLO1QRxrsSOXNVC2M81x6w2nPFF2RaSQKoJ+TVqVkSIvE3rFAVt5ZNFaFdRCgbVipIzHcMVPer/AKxeXTFvMcg9xVJnWvz81rjGeRSokXON6AeU2s415MbbUdHkGkuoFuISjjHsatKB8jZGwSMqfegz1X8PIUuFKkdxUsIkw1tNkOm6Me9MlgTqEBR8LMm2aQGWvVrd+JRn2NWkF7FJjf8AUViIunzeeY5Bpx3qxis0A0ozZHfPNOZaLW2yVwwBBBHvUisRxvWd6U0kBZGclM7Zq6ilG1ay7RZocp+akRqGjfO1Shs+1WScH+9MLdzSA00tQEyHJwDS5wMUyPjI78UuaQdIf1qEipHPeoiR796QUevC75NCvJnOB+1HHSRjGKesAK+lK4XWrVLHJxxREZyoOOaLEYjBBXBNPhjDPgBcDmgIbcFgMrgUSY4sbqM0UEVTtpIrvKLqNu9I9K424RiRkg9qfHEurcYNHSflgFqjIDNqDDNBIfIGRxUUy6TjTRpU6RiopAQcHagBCgA4rgnxxRLr6cikhRzyNqYQlfikcYbB3oiSM9j+1QuuCcmkEUiZIGnIpyJlgacXGdj2pwx3FMGGPkgVCqEN9NEkgDANRsQTigBijhjpXNdpfHGKJOCcauKaTgHFADEEDg8VH68cUUzHfioterY4xQA/r3zz81GS2Cd8UQxyMVBISARmmQPobarm7J7/AP1V5HnRVF0Fd7lif5sYq9UnRx2oy9iFINQPnep/vUEg3OOPekaS2A8zJNZTxJ/+VkHttWqtvrxmsn4iOeqyn5q8PaM/QFYyRleabJrLEvnPvRVmuW3qyjtklUhgKvaNKHNcN6tJulEMdDYHsaGPT7nBKRMyjnAp7LSCJ9EqN/SwNe++DOoJc9OgcHcqBXh1p0i9umCxW75PvXoHhgXnhxFTqWRE5AUexrLmm40w6r2KCTIqQyAnfiqDpvUBIoIO1WXnjBNefljduiVPcSDAANMjAoR31MMGiI2O2akbFiTG2KQnvn9KiB2zjamSZ5FIbPeTSKj1qwpjZIOaiETasrTLaWQ5BxVdKDlj3FWGlsDah7qNUU9yaeJVWO2CTgUNP6gdqJkHOf0oW5JSIkGtsUVV3vONsYrK9bOiJmIzjetLdOr7ms31k5hdlydPOK34/bOsgzmRmJ2zU2cRYO4NQQR6nbfb5qUxsxAUZxXbKxRwW8iSeZGSDyCKsYuqdSRlSS5laPgg4psETjkgU86UOCwNMLiDy7gKZJnIPcmt/wCFpjaW6wqVwf5jXl8Moj7+k9q0/hvqQtZ0jnBaJjsf6ayznSsfb0S5soZCshOticjNLd20NxB5LEA8j4pIpI7m3zaMGbHPaglkaKdhN6m4xXO6IHt7dunu2X1KeBTOosk6GCYBo25Bo+6dZoiSuD/tVCuPMIdtzUrjK9S6MbS4Z7dmMROw9qHjOgDUSTnfNa+5tWIOBqBFZ+7thGTgEHmiUaV0iNIQwYgZNRiF03c4XO1EFG0nA1E+3agrhJdQVtX/AMU0p3vFSJo3wFwR96yyy6bkkcBsgVsLewhu4ljU+pgd/mq/qXhuW2t5J4k1qOMc/NXhZ6TlKtOk4u4kkEeUxg0JeQQ29zIJgrAbjNV3ROvy9NXyHQaPmi72WLqkqMrEM31EUasoVV9dqZB5caqBVdJlyx4Jqxv+mSxXOlDrB9+1dLaxxxnVgsR296vpJsMsKQCFwCCclquLC3SA64MsD3NZ+aFRAr8EnGKs+lec6OyPhANs0rOji1vbT8RaMyIWyM59jWatm/DXal84Bxmtt0ps27M7YXH0jisn1Y28nUR5OBGNjipxOrO4ulaJdBOBvmnR3J9GQccGobDpxlQtpZkB2NLcNHb3RSPJHfNFhxYTwyrba3X8tuDVZbxS3d9HbW65YnGRR6z+YgBYke3ajOnAWj+egw44NSGihhj6Hb/ho2DSZ9be5psTGSZz/L29qzF7fSXU7Oz5yd6tuj3kcaqrSBW9zRo1rHCWnDL5gPwKf1O8S1ttDrIzE7/FWfTZndh61P8AtVT4rvJIkcLb28w/1ZzQTz3xD1WSG4UqpwTuD7VHZ9Ut5h6mEbexqs63PHdSs/lmGT+ntVPxXRPTG+2vuupQQZCOsjfFU83VLhnyHKj2FVKtipkdSQRtTJbQX8sjBZwHGdm7iiLiTyJknU7bBqBgGHTHc1YSxl2uYcZygYfoKDGyKs8QdefehCDnOCpH96h6HdN/kyHI+e1WFymNxxQCQSbgAZqxQ5AIqoj2y3bGKItZyq7nI9qrG6TZtcRSkHNGRvkcVVKwO4O1GQSZ2zWkSMLY5OaaGzsOKZq+c0itk/OaYFxkaduKXORUUZ2NO1D23oIrnjvUW1LISCKbk4HvSCr05IIqeGUpkEE1EGCpk9qYZAR+tcLrGt+YQWG1OQIinRtmg1mABAJqSOVRz3oAwOSmAe9IJWA9/aovOXHOM0wSJp+rFIJtbkYYZrlIUk42qMzR7YO1d5qEc80BI8jZGBtUeNZDMcEHiuMq4x3rhJGefagJZCpG2wrlfI5xUcjx6QCdqaGjwNLDFASMTgAYqF2y2CBinFw2Dnio2ILc4phHLpDZA/Su8xhwtdJ9YIOaUagfvQDdQ9t6jYjVtmn7+xpB9XFAR6gGzxmkZ2wSO1OZQTzvTQuxzQDdWSaYwGNqkIBB3xUQwGOaYJg53PNDyfS25ok4I3oaX6W9sUEB6CSBcHGcvV4nGOKo+g5EE5xy9XQ2AwM0ZexPSRvvUT5/Sn0yTnekaS3HqrHdd/8Ayk//AHVsYDuPmsZ1o6uqXB/1Gr4/ac/TrE5Gf0q4sTsSapOmtiXT71oIIJAhfScdqrL2mehIXIzWq8BW6yz3UbDI0g/71l07A7Gtd/D5wnULgMd2QY/vU0Roj06KKRG0jUDsQKov4hdOnuOlpdW4YiJvWq+3vWourhFvIYm2Vicmilg8t3jkIe2mGn7VO1aeT+Fet3drOEmd2h/lzXo9t1AyouFOWqivOiQ2N88caZQnUpHarXp8BTDHgVhyaq8elujsMEg0dFICuM1WazmpY5dO3FYWKWPmlO2aUyq/Yig/NGalVs1FhiBvsDU6bDbmg1IBqQSEbigCHPpNV84yxLGpJJ9jqql6leNjCk4+KeMLJJcSKBgYoC8BMZzwaiQkuCTmnXT/AJeMHFbYoqhuAykjkVneqa44pGUHNaa4BD57GqTqqeZE6j+mt8PaMmOtzlSRgZ5omFWzkd6Bt9SOw7VYQz6VAwK7YwqSR2RNQFDxK7kuwpLmdpCEQfeioCNIG4phHJkIMgiibTqyW3omBI7GnTxho8CqXqER8sEZBBzSvcE9vTeheKOmwQKGuNL/ANFWsPiGx6jepHE2hzwDya8OE7L9GQeM0d0W5eC/in1tkMDzzWOWEbY5Pcrh5GQqMAD3oTQZIgCmWHBq26Vf2nVLCKSWLQSO1aCy6VaaRIhyo71zW6dEYwPLGoBTHbehru1juADKdI+K1vX57CK2aM+UZAdlPNYyTqY16WtiQP2NLYCTWsUCny+MUIsJFyjsMqFNWMlyJJQ6QlFbbS1FC2EcJPCfFGxpV2NusWqYYBGd/vTorwtK8cyhogpII96NkR2i0DDewPeq6cfhrd2CHVxiiCxU9W6La3LO0YIcKTqHzWYsIJLTq8cTEMNWnb5rcoXZ1lYaRjBUcGhW6ZayXAvQpEingVpMtdIuJr2jlz56kHIw3sKxXUg0N7IhY6Qea9Jh6tbX96liihUwASec1SeOumxW9uzeWofIKsPbFVjdXsrOmVlJl6cpAzpPPtVj4at3mWVDIVQDgUFBFE1gxUlWG5x3rR+C9PlSYw2rke1VlekSFv0k6dbuBuunY+4rLWcX4i8RCcBjvitz16RVsxBMVCuNJqn6F0swTtJgSenII7DNTLqKsaS2ENlbLHHhQDjJ7jFVl5YxXDuYzl/6qNmeGRJIyhDgZyfeoXWRYFwoEajc/wBVSpViJYk0kZ010nqRS2Qh4xVlbwm6gLuNMScKOTUYIE6JEBqU50kbUAlp0OS6iMsYGkdjTLeB4J9Dqc52zWshuJltPTGpYDGwrLdYnnFwC75f2Ao3sLxopY7ZmR/VjOAaxXU+tSQsyM3mdiB2qeKe9kl9czaCMaazfUbG6lupNIZxnmrwxRlegF7OJ5WYat98GhqnuLWa3fEsbLUBrZk7murqQ0wsLG4JKqx3BrQRENdavdP+KyMedYK9q0fSpfNK5+oYBzSpgVJtr9xwNRNaOFhNBv3qj6pAVvCf6txVh02b0hCaQPCmN8GkdNPrUZHcURcp3A/WoUY4pkW3meMEA7ds0THeuD6lFCumMsOPakGM7090LqOZZFBUj7VKj5bFUcbMsyFDjfFWiS4OSa0l2izQ9G2+afryP+aHVwVp+cDtTCQtxx81ynfPaoWO3xT0O21IK5tJJJFIdJJxtRptZu8ZwKHMEiPvE2PeuJ1IlXanadtqk0MNtDD9KQRyf0t8UAgG3PFNIJXfnNSaHXlTXMGyef2oBmk6d6TBwTjenjVp3OP0puG17ttQCZJxmucb7jtSsHJyDXNqxyKQIRkDGf1pQuORzSAMR6iCRSIXVuaAeRsP7UwgZ43pdZV/ikkbDAgbUwaRhhinAHIJJpJGwQQa4tgjfY0ApBI3O1NXOecintgHGrPtTQulu2+9AIQDnHNcTS7lvtSYYgnTt70Ax2GOKiJznapHQkZxTNJKUAztQ8xwre2KIYDTv70HdNpjbbtTgM6CP+kkPu+RVuMjmqvw/wD+j37mrQgdjxSy9iFwM5NQtyalJ/aombc0BLAN8Z4rFdWP/mM5/wBRrawHByeMGsj+DkvupyLGpOW5q8Lr2nODfCPTxeXbawcAbGvQ4OnIkQR1yKg8K9BWyiVhqDHkVqhbbHasOTk76Vjj0yPUujb+ZbrtjcVXdOupemXqzINwcEe4retAd8LVJ1TowkdJIwQwO496MOXfVFxWl7cG/sori32Zd8U+06ySnlTDSR71RWpk6dr8wkxMfp9qSW9tZiQHUOu2e9XKTTSTrdaX2yNqJiwUGKydhfNFLpbLKeCK0ltL+XkH96x5IqJ2YAkHOaWNC2+DUaEtuaPt8DBNZLNitXIqfyjHjJokSYTC1Ho1nLGs9hECGcDtSyPp3ycUT5aqvpG/vQdwexoAK4mIGBx7UILZ529QIBqxCKzbjIp0sqxsoGNqqUg8diigkAlsVDNbjJGKJF2oY70JNOrnKGqlLSpuoPXiq+5sVkY42J2q9dSxJIyOagnhCKDmtcckWMRf+HMSF4jgn+9UN8n4Mssgwex969FuvUmBWL8S2hdGkO5Xeuri5LeqyyxU1kwJDsOatUiVhtzVBBcRkqu61cp6d1roZluPMi35FA38ivbMScUcZtSkPVP1YYAKn0k0U4rlGR8Uf0uye8uEjiByT2oOMV6L/D7puI3unXI4XbvWOeXjNtMJutB4dEnShHEck4xXokNwE6YW1lWKk1hJcKAzBgwO2KuoJHfp5DMxXGRXJbt1SKWW0Fxcs0z6wSf70W1lFDAio/0nPqpLWVfNIUZbuDSShWc53+PbNGxp0KpLq1IMHgiunGdEMRO/I9qltIwRpYEKOMVOY2UkqPSO9TtSskZQywru+4zQs6SA4SPVnmjF8tL31jD9iaLAPn6lII5p7LW2ZLSK51KAo/l+aikMkkTLCMu+xFafqnTFaD8So7ZzQPhqJLm/LKylUB1L81e06YCwE/RPE6RXAwWODn5rbeLYI7nwzPK4HmIhKt70B/FaxAS26hGCJFOnIH//AHtRvhqeLxB4ZNnIwVxt96ve9ZI1p59aWbv0tZImBJf1j2rUeB44oerTQAjLpnJ/Ss/0+Q2PWpbLdojJjepuqSmy8Q+fbuVYEYC/arvaY0H8RrYQ2wkG3qx/aq7oxurewDscK67E+1T+O5pJ+k2kjsT5hBI+aveg2Cv4WjkmGoiLOCOBmp9RSutrgXBbgvnepbTFwssJAypzjsBQFjFqu08ojWzcAVZXNs9rFJrUhn5x3pA4lIdcKsMnYlaFkmeGSYwaAU/m7mmpoGFZCATnApy20ciSvK+MnOBQBdh1qbyvKZQZG2zREnTo5YjLPONR30LVDLCLYGXUfVxipOkXiRu7SEH470v+wbQXVuYdcqDCLVCnVGjlLOh8s9/arzrXVVDmNmCxt2qkWOC4m0REMrCtsJ12yyq0hNvexajpkB7UBf8AQ4yn5G2N8dqdF02WwkDQhvLY9+DR8lyLdSZQAvArSIZObpTKDpbcdjVdJE8ZwR+1afrMkPlKwYZb+ms/JhTlG2pgMjlGyKuenyBtMqLpwcEVUYHJq36Ouq2lA5BzSCw6kFeNZAN6HiJRlPvUshLQAHjNIsWqMnJzQa2B1wg7cUKwwT8VJZtmMKTuKbLkPgd6CKjZGDTJk21Lke9cM5qUbrQEIOMMDxR6NnFVjjQxB47UdESYxirwqchauQB2qdWyu+RQXzU8bZ2qqUSsxyM8VKhyMDvQ5ODUiH0g+9BtC5IxkVHIzBwNRFCtftp9VJ+KJkG2ciuF17GatsZJNJuQQaHWcauKVZuce9B7PdU0kkYpgQKNhkfNNdta4OwrsjSoyQPvSLZHhV2II4qJoEU7ipRgOSpOT81DJg5BfvQDTEu4xTDEpHFS9x6h+9M3Cn1UyRGBPam+QgODzT9R1AahxUcj5xuM5oBjwoTtTWT2OKkLAnYjakfCjPOaZIihI5BNNERI3NKTkDsa5ArJu2+aAbgLycntmmlWbcYz9qmTylTLLqNStcqqL5cQz80AComjYnQDnnaiYWLqEZWTfOac17IHHpXH2qNrx2RwVG3fFAEPAdTFV1KBnFDSxggErg+1N/EsWX1EbdqTzc4y2aAFnbT9INA3Taomz7VYyKJGG+9CXsGmJy3tTgN6KuLCM9icnNWLEbVX9J//AB0Q4zRi7KMD9qV9lDicDJqBjvtUuajbjeg00ByDt2qbwpah7luMA54plr9PttWm8MWaaRLGFOTucVOV1A01pAqINO4o1UyNxSQJ6dqn42zXFbtrEJjBO21Rvb5xnei1Vj2qRR7ikFNc2McsbKyA5HNZi48LLI5ZMas+1egmEEb8U3yAN1FXOSxPiytj0YWyKCM/FGm3ZeBtV75B9qZJAcHYUXk37PxVKvvgjAFEpJpA25pZLQr6qWOPK5PNLyh6OEzkVPE5xkmmBRxjJpwiJ5JH2qRpLJdhVIHNANMXYnH60YLZRvjJ+ak/DKdgoFLY0rC8x+n0ihtMg1FtzV5+E9ia57ZQuSMkUeQ0zd1C22nIrre1D7hjmrW9TSpIGKB6WW82TVvWkS5oGQgdqjlgbI2Jq4cKQDyRUTtvswBp7LTPz2Z0knYVnOs2i6CCdQOxrb3eGByc1j+tuI2KLwa347WeUedzWIhvzGfpJ2q3hQFAKTqSZnjZQQc806PYZrsxrGo7iFlUsu4qmutTx7jjermaYrsOTQMwTQxI3q6UV1rGzyppwckV7b4XhUdGjAUIe4HvXk3h21FxdKh275xXr/h4qlnoByw5rm5q6OKJ7ePz7hoj9KnvVm8arbmGMhce1Nto8KWCjLcmo55lhOW+3PFczoVywfhZDKBqByDXRDzeVwxPJomJllclHzH3UHmpUiWW9RWPpxxQEsEMcbqQgJNW0XT/ADotTqAOQBQNscTFSo0qe9GXXibpdjEY7qXQ/H0nAqVfTHeJLGeRXeyYo6N2NCeHJ7/8UIruPZf5ic5rQvfWDKZFf8t9yW71PbW9hcFJLG5jZ/6dY/2q4hP1XMnS5fLAT05NZT+HMMZv7xmB16j9jW+t7MNbvDcDIf8AaqHw30ebpV7dkgeSzejbijY0T+IFkt70CSNEUOqkr968t8Em7gvng+iMN6yewr1fxc88tn5FoMyyEDPsPeqq56dZW1vC0UIMjYWTHJ96rHLU0m47rD9esYv8Q/GWsemONt2/rNJ0y1hm61ZSXCjRJyWG3NXnX5C58pYiECEAY7027s40tLWMHUdOQT75q/JOjPHy2r9PhMOD5bhAO1avpEAj6NEifTLFpx7VivENuZBAmkLAhGT81t+g3SSdOgj4dBjfvSt6NlfD1u1v12e35lVtj7VofEPS2SFZZ29KjJJOM0J4fhEniq6l0F1DZJ49qsfHxe8txE5Kp7DilvsMbHfQzFgmXXjOak/6YxlTG+rtVfYdONodLjKE/VxV5c26x2qyJkEjn2qkq6QebakHUEQbZqniOgEY0g/3o+ZjocO7H7HagWCl8KcnG29BVSddtyy+br9OdxVNazvayh4mwRV91iRRbOrgg571mgMjNb4emWXte3XiK6ngSFWKIOcd6gjivL7/AN06BuNTVUZo+ykBABcitEnXtlLboHZ1Yd8dqCO529X2q8ljWSHTk5Pdjmh7a4trKcLJBrIP1UUIYrOd7bW0YULuCRzR/Qm1+YhXGO1GdTulmtAYsjcHFD9EOppX04zSoiRozhlx3zU8KZjNLMPWSO9LATg4FIyQeibG+KnnHemsvqBHNSS/SMb0wH7bCnR80uDzTe+RQCXEepcqMEVBazukgAYkE7ijP5aqr/VA4ZcjJ2NPEtbXWrvU0RzzzVJD1EqoEo/UVbwOrKrKcg1omywRnnO9OB2Azio1weKVuPipKBIrkycMcip1lk33PxVRZSBZ2BPo7k1Zx3CH6mBA+a5HUJEkhB3NOVnB2Zv3qNLiHBww3+akWaLGzDP3oBxkkG2SaQySN/MRXatZ9Csx/wBO9OWOVmAWCUn/ALDQDBM4PJ+9RPKzZGSasX6fLFaPc3OIY0G4I3P6Vm7R77qt95PTY8JySRwPenAsi0nOGIFL5zBMbj4NDQLepeta+a82DjSikFvtRX4cSXzx6JVnUYWAnUfuTQRolGrJ5x3qOSUbAjk+9aXpXgw39s0tw8onYbDOkKf+aN6b/DyKJg3ULySYg8IStLcPVZFiFQ5wP1pjSjSBqHtzXqKeEulJjVA7H/U2f+KdL4Y6aVx+Eh+PSKXlD08pD7gbUuoIvqPevQb3wRZyKTCzxv8AB2qjuvA96hJglSQDsdqe4TOeahXANLrUnGrep77ot9YsRNbsfld/9qrZAyv6lKkdjtQBhYbEGkJzq+aFycDFPDkHegJe4BApo996QOcimFyoOO9ATJgc0H1Nx+HfB7VIX2G+9AX8n5En2ohCOlg/gIMHt/zRnbagLOdYen25OOMEZ43qdr23T6pAPbFF3sbTDnfimHGaGbqVuM4bOKBk6vFryqkinMaNxeRPpRz2ArU+Dr5JLFGBCkcivO362DCyLEQSMZqCx6zLZjEer9DSvHcoPKR75bza1GlhRBYZzXhsXjLqMLAxtt7HejrX+IXU4j6kRwfisL8bL6V+WPa4W2HtU4AbivHIv4j3IbPk6W/t+1Wdt/E+PQBc2rBh/Mp2/aovBnFfkj1LgUhIIwOa8/H8SenFdw5B/cUFd/xBtcZt3Y/pip/Bn/B5x6YGI4NMky25NeXr/EdlXeMN8japov4j27sFdGXPJpfgz/g849FfYYY5oYYDVj7P+IVhIxjmVgRnerZPEPTZEEi3Ue4zjNK8WU9w/KL9QeRtREI23NUVr1+xkYJ56D2JNWaXkJwRIpHuGqbjYe4sNIx2xS425oQy6t0YEVFJfxxZ811GPc1PjRtYFgKhkk1HAIx3qsk6tbxqWaRSnwaznW/EkCxM9lOhdd9LbZqseO2lco0V/cRxgiQ4FUtp1KCGdw0i4NeddV8YXNwXV/Se2DtWauOr3M2xc/pXXj8e67Z3kj2O68R28EpGoY771W3fiaMqWt21D4NeSSXc8ijXIxxwc0sVzKpBViCPmtf8eRHnt6HceKGjdW1nS3NDXN+l4wcOMHgVi3umdiXGc1C00iYKMQPbNVOPRWtfckOmNjih9JC+9UVv1SRQRISamHVTpZePmtJNIFz4LjJ5oGQnUTnIqOW61gbkHOajiZpJtHIJ5p7Gmo8LARwtIAS2dsVufDVxk6WBy1ZHpMKRWeIs5Na7pKrbW8TtjVjNc/JdujDppriZUhUI7Bx2HegpSryanQE47iq9LxtbSZ1ZOAD2ouEvK5abO42rGxrsXYxQQRO0aBWO5YmsL4n8Rzv1FbfpTMHRsFucmrbxN1OSBPIgZcsMbUB4d6ETbG8dSZSTgHY05Nd0qvPB69Yu7pP8Unj8o74A3P8Aeif4u9KW2sLW4tkxEGGsgfagbfqU1jfI0oC6TwRjavQtdn4n6DJbuVdXUjHsai2y7XPWnnXUo7abw5riUOfJGP2rzzq3W4CluOlQGymiGl5Izgsa1vmT+Gr+XpXVEY27MfLk7AHiq2TwQLy8M1vcx/h3OogbkVthnMfbDKVo/wCHHijrNzBIt4fxFumAHb6v3r0zpd9b9RUiNhqH1J3FedE2PhbpWjUAQucDkmqf+FnXZJfHYMhYRXGVwTtnIxUa895RWOVnVet9W6foUSiM4Hesva9PnEpYzh8tnB3xXqvVoA/SJyqgkLkV5zCMa231k8Z2qJWik61Bly6qGMY70HdvbmKIXEbAAbEHirHqAZnaTTkHbmqO5y6urPvjYVcTVV1m5FzEtureoHNavwva3E8KMUwCuDtWQ6dZm96yoPbmtT1nxOvQYo7WDDXDDj2FXe+onevbSWtradKeSW4kRA3JJqr6x4u8PMphR1uHXsBXkXiLqfVb6RpJriRo2OdIOwobw10uW+v0IDKinJbjNV4STdqLn/G4vOu9PeQNcAiMH0jHFFSdZsZbNlQEKy+jI2rM+LLSFbmzsrYFpdWWxvV/1Po6W3RIUZNMqrnI96XRqsDzF9CqCe+KCeDRNrXleRQdt1SS2uTazoNzswqwklwSx3zzg09aLe1T4mg1QLMmcH6hWYJ49q3HpnhdDwfeshc23lXbx5yqnn4rXjv0zzgQqeaRDpajmtsuPKIII4oSSJkcgqc/atUJ1lkfCRZ1UWnTLiQh52wKEsiFmUlip96u3klWPKspoFSTR4gG2AEx+wpnR9oJD80rSNJ07VnLbg0vSSogwpB96VEEysJMFTuOabbSBWwxriNLbd6jkGlgx7UjWGxwRXMcneoYZQygipiRmmCYzSGPfanatqTJJFAMkOBUMkP4i2ZDueRU065TIp1ocoe1AZpsj0kVcdIkJtyD/KcUD1mEwXepdlcZqbo8o8t11AMauHl3F1E/OalByMGg1bA+aJjO29DI0JGMgxrj7U+KCKVtEcAZzwAtWPVOiXVi0YbLBjhmC7AVpeiP03pKoJAjTkbSc1ybdSq6b4Re5dTPEsUR/fFaG28G9MXmJ2I76qu2vILeLzZicE4zjiq7qHii2tCq2sMly7HGEBxU7MfY9EsrM6beFAx5LYJpOrpL061kuLOJZpB/IOaGsvxcxlvZFKTEYSMvgAVk+qdf8QNHcwk28CpkPKpBI+2KJLQz/Xes3NxHdx30bCec4SMHGgA5obwy3UrG7jhgj0i7IRtvUAOftWn8LeCx1GBOo9VupJZGOpdznHar7rfTH6TOvUOmW5uZgPUhbhR3Ht3qtz0WlN4g6VcdBulvOnBpbxlb1H6UXH/91L/D7pE8lzL1LqL6ppvUCDWf6v4qv+uXywW0TQq2EKA5JNel+GOlN0rpyJMxMzDUQTkD4pXcnZxeBFA9vak0gmpIkJXU3PalYeneoUQJkEnG1RAam+1ORizFf5R/ekmZIl1E4A5pg1lJJyK7yyF2UYpYG1gvjbkVXXvV/W0MONQ5bsKJjb6RllMZ2mu2hjRjpDsBnTmqWGwsOqxGd7SPOcH0gkUL1K4FvlGmXW43Ofeq6y8VWPR4poZp1KP3T1EH9K0mGo5/ybyA9Q6JBJeSRxqItPBzis9fWMlq5y6so713XfF5uJ3ayTIJ+phispedQu7piZZ2A9l4q9Sqx8otbi/hhB1nUfYVXTdYZgfJjwexNV4BJ3JJPvSFQBnVj7U5jFXKpHu7iTcsf0qJ3mYHU7Efek1lAcd6b5pFVpO3an04LEj2zTTyNW9cZPimFiaNEd3zxSfFNzmuzTB+rGMmuJ9jTc770lAPD4ztXB8A44qP9a6gH6xjvSFzjGdqYaWgH6xjiuLDsKj+9dRoJNftTc96bS0A7Wfc4pVkK/TkVHXUASLqUn62/ej7Xqd+u0d1LjjTrNU+ccUbbBVAfO/epykVKuYfE/WbVwVuZNuzZIpL7xZfXsZW4Iz7rtUMMsLIA53+Rmq+9t1Dlo/pPas5Md9xd249UuwpHnyFfbNDTXMkjAsxJ+9RupU4IptayRmVm1HJJNJ/vSGlpkcgyanEDZVgMg1DEfV7VYRKcelhuKnK6VIFuMCQYGNqgZsjFEXQK4B/ehSMGnCpK4UuN6SqI7JFS28gSXVjb2qIZO5p0f14FKiNb0S+c+lcKp23rZTzeVBbjc7c1590kaHTPFbq6YC2t8+3Fc+ToxFR3EUEWtjk/eo5/EkccJVWJdth8VUX0bTzLHESGYDAFW3SvCTOVefBJ3xzUXU9rnfoD0a3l6l1EzXCMyDcVs4r38KyJ5e2MccUQli3Tofy4wEUdqTp0YnlZ5CuG7Gs7ltelV1uGO8xI6EE9wOKD6be3HTZ0/CyOF1bgggGtVc2sJbQsik+ytxVPLFGW0SROxRsg0gvrz/CvElokXVYQHf0hxyDWV6t/D3qVrh+hdSk8vsmo/8AzRM+TMrRFguQNPtV70jrE1rpEpUop3yc5FT3j6V1fbzy88B+I7ldd8zSKOdTZoLp3S5Ok9QgkGUkicMcDB2r6Hg6hb3NvnWOM4O1ePeNJXPV5PLjVYj/ADe9PHlt6Fwk7e3WNyLrw4kpJy8eN6yNzbLbwSN/PuQPeium9YhHh2GOFwxRBmqO5vHuWOs4FRvtXj0o+qErFkkqdXY1Vx4eY7engEmrzqts0kIA3zVJdW0sMf2+auZIuNP6RGkPUJHVRnHOK8z8V3ct71+eZA3pbAxW66b1Pybs+ecKdqouhW9pceImMn0GTBB4Na4Za7ZZTfSoseoEaPMtZH9wBzV1ZXd3PiPp1jLGT3Kkf8V7r0fwx0VbJJGt4vUM7gVBfz9I6erRxRJqXuFpXPd9Cccee+FvDLQSN1PrBBkHqGTnFCeMOtxNmKIgij/EvXJpVliiKpCdsAb4rz/qBRp9WWP3qsZb7LK6U3VJNciyKpDDvR9jcmeIg51L71zESoVIG3GRSRrobK4AIxitGcEiUYBU81T3if8AUy7c0TcymPt32xQzeosxzVY9FQUxCRqEb1g81F5k3Jy333rvqdvvUyLgfUa1TIHeR2GNI/QVa9KImj8mYld9mzUEagfeomcROSzEE8Yo2rw/q9uols7KTdSvY5qi6ddtDcDJ9DHcVBNcPIukuxX2JqD7UI1pr8l8MOOxpjKWyDVb0m7yoikbftR8rFSD2oBF1RSbHajlfUuR7ULgSqdOOKbDLpJVtqAMBzTh/amodQGDT8UAq4ORzUdttqB96VT6qQDSSRQEXVoBNas+Mum4qkhKpggYatHnJ74NVctsrglR6hThyi7Z/MhVs/ejYzsPbiqMGW2XK/TRdt1JGKpKNJppyx/j3i5hjkjZXUEMODWdaygtpjiBGGcjUucVs3t0K7jeq+a2TUQF1D3rhjpqquLjUoX8M0isOy5FVUdzN0+9h8qyHl5y66OPsav2eSFiIgQB2qaCZZhiVAM98b0yBP1yxltWW6LKf5lA0kH71l7q2n824fpdrHewSbhWkGQc9xWtm6B0y7kMsiuWO5w+P7VLZ9Fs+muz2YlUsN8uSKJdHZtlLW88XW9poFhagAYXSVGP0qPot54kjXqBu7V5HnXQpzgL77frW7zIBvhqet4F9MiEfan5f8Gnn38PPDskfWZ7zqEbKImITUuNR969KvBlFZRkj2pEniKZCEYpxkQnZTg0rdnJp0cqrHvqPxikyW3bZR296aZFUnUNIHcmqvqnXun9PiLTXMWR2VgT+1EFWufL34FUXiW4QwGNZQHJ1H1Y2rFeIP4jySxtD01R7aitYe96r1C7DSTzMAfZq0xmu6zztymo9bk8U29j0f8ANmQy4KgAj9Kw154uYxNDZplmbUXbeseSWy0jlvgmofxeiT8vHHcVU/4i4z7WPU+qdQu5f+olAB/p2qvCBTliD/zQ007yfURj2qMyNpxmq1RuQQ8pGVCjTQzMc5BppO3NNzuaqROztZHff3pmrHekNJTIpbJycmkOa7BruKA7712a7O9dQCUorq7G1AJXGne1dgZoBtd2pSAK48UAlJS0oHtQCV1L3yaXFANruKdik05o2DRXVxFdQHcVJEWztzUVTQgb5OBRQsLcYC68b+1Sspx9BIPFNtCphCn6xuDUi61yVf7A1jWsCyxK+MZz3oW4iwQQMCrV9hn0571AQDsRmnMrCs2qSMVwGanmiYMcAYqSG31rnBxWnkjVCqN6JtXIbHbvTpLYquVP6YqI+n6eaVuznQudA6krkj5quPJFW1o6zKqtgUHdQESOyjYUsbrqizfYSuPNL7Uhq0nruMDmkT6xnnNIudQwal04ZW+aRxe2WdEeRgGtz0qMXFojXJBwMLisHaOT6xll9q1vQb/KRxDkdjWGTbE67DWvUI5cHSCN69R8NPBd2yyJgsRnGawnVrN54A7yIEG+B707w/1P8AmkS7DtWWU8o1xuno3WgFs5RgAlTXn8ENzKzAS4xwNWKk6h1ueeQLG5K+2c5qkkm6gC7W8Z9R3qZjpVrWW1rBZRi5uZWLjckP8A8URFdC5RpET0ds15469ankDGOXRkc5ArX2P4o24R10MQBtTuOilE3OAg8pgr5yQd6BuZtL4kIUnjG9Wh6Q8iKfMfV3OmltemxQFvNBmb3I4qFCbSYxWaFtRcDIwe1ZnxDN+NkjWMEYO+a1LQyTHEaYUDFA3vRmjt5HjB8w+/vUrnaqsblbRFjDnB5APer22l8xeKw93GbF0SQksWyWrT2E4WFWLEgillDxq4ddcZAJzVTMpAcPn4qzWdVTbfIoDqZJAKfSOaie13TBeIFaOTK7ZqssldbhShOrOasPE8pMwjBGMYzTOk27SLG+DqTnHeurH05r7ej9L8SSzdLWN2zIgxVX1TqIlB1tud+MVS22qNWO6+xxiq+7nZ1y7EYNLGJyvRep3RbGcDfaqWVi7k4z80l5eKjjzTkHjanWclvIhAYmtpNMbdodJJzjHzUU2tJRkErVjdxgBdJ27VHPFiIavamNBbO0fqE/lxkaj71a3Hg/qSwflBXY9s42ojwd038R1BGGwz717Bb2USqA2WYbZFXIl8+t4V6oHwsD54xjajbbwX1qYj8lEHuXFe7TWse+lSDQw8pYyZNivJJqth5Gf4fdXVdQeInHGoVVS+DuttIytbqcf6hXsC9c6Y8rRJdRmQdtQrHeKfGotbmW1sEJfTpLnsae6PJ57f9Em6c+m7MauOVDgmhVgA5xjtREpmu7hpJmLO25Z63PgjoFjcMk93rnYA+jTgUy2xNj0q4ubmJYCoZjhcnFbRPCdytuWupghC5IVdVeg2fQbJbj8VFaxiTgcbY+KsXttjlBj7UE8atukzqT5fmOuTv5ZFEx+Hry6BaCIn31DTXqIhETEKq4+1HwQqyZKgD4pB4/H0m/imaFraQsPZTj96nPReojJa2b9q9WmhUMpTOR80jJtvnNMPJYuj37P/AOnfHyMUZH4a6kx2jjyfdwK9Mt1yp1DilmiTAcLigPOP/C3VcD8qP/8AcVVXXQ7+1mZZbdt+NHq/2r10RAoCCwP71ExwxDLmls3jtx0y8aFwLeU5H9Bqofpt2n1Ws4//ANZr30CPy91IPbaoI4lbAIViP6qexLp0PXGuCBFG5Y9qle+uUJzGmMZAJxWSgnubWXXCVyDt3q1XqkEsga5Vg+MNg7VjcNekY8tvtbC6MiAkIrH3bFA3F1cW7kiEY/qzkUNfXthGEaEM47qTRtji5tnNmrtG4wQ+4B+5pa13T87eorG61Mrn0jI5xtRsfiKJbcFyTKP5e1BSdKYShCCznnTvUU/TEs1ZplXHy1V+iZeSelwnW1mhLJ6X7L70Hc+IJIwVaPDcZIrE3vXTaO628GSNgc5qkuuv9UmGFQqp/wBGT+9Hjiufkr0qTxTFbFfNYBeTg81WdV/iVFHEUsEJk9yteYzPPMfzmbnO5xSGPT8j3qfGNJufbQ9Q8VdS6iCzztGD2VsVSSySSEGVi/yxzTBoRMnb70NNcDgU9bFokEOx4X2qOd9Dc6v9qAkuH4BwKi8wnkk1UxLyEtdthgAN/ih9ZPYUzPNdmrk0k4nam13JpKCLtSV2aTNAKaSlzXUyJSkDFcK7BP2oBCK7FKedq7O1AIAc70tdmlAzQDTXCnEDgVx4+aAaSciupQN+KXGaAZXA70pFcBQHZpQSduKbXA0BJwK4EE4ziuBGnJ59qYc96Qc3xvSY2zSnGM1y0wbXLzzTiBjNIOcUAfZnsTzR8ETAnUmpfvVdakBwV3x2qxeYuAEyPcVjl7az0iuiI3LgYJ2xyKGL5HODRUkQ8slske/tQfpydQNECIk66khldSB2NMIycjilUNqAINUSwVCQMbmgbhAspBGDVjbN6R71Jd2yzRM4G49qiXVVZtU22VlwD9qOnT8on35oDSQ/O9WsIbyMP+9O0pFDIuhsGmdqLv4jHLjBx2oQ8VrO4zvVcPipR9OKiHNTRjINFEWPSmJwFfcVoOnyeXdoQRqJ3rL2BMcujIBNXcGuK4DtkDgGsso1xejxGOS1K6cj3JrLdTgeO4xbBifgbVYdIv441zcFylW8yxXsGYBpHYgVj6as706O9jfUTHkdmIrTWnV0t4yLhYi/xis+0E8M2CjSDPI3rRdM6TFfwYmQR/LbGinFradUiuoh5Rh32wxFXnTLMzsrSrHt3BFU1r4Ytoj+VIo+Q2a2nQOnRpGA8hfHsKiTs9herhYLYeWASOwrGz37rN2CMcYzjevTbqxhUZZSV+1CrY9FZPMktiShycpRZ2crF9Jvbn8SYJ4kVOVOrc1p5IFuYgqAZNTdQ6T0q9uoLxJfKYDCAHAP6VN0vptzDfEmdGhP0qcZqLjtpjdPN/HfQ3tFWcRsYydyO1ZKz6uYrry2GUFfSfUekR3to0U6qwYY4zXiP8RPBLWSvPbggAE+natscP6yyz3Qtt1NJFOGx7AnigerddEUbRr6iR2qotI3t7NDcNljQtp0+/691r8LZRjSOTRMJaq3UB3Eh6hdx6Rkk4rQ2atZKTj7jFbroH8P7fpP/VXbGSUjYdhVN1+0mjvES3t8o5wzY2p5Y6ZTLbOzX8dyrNHqBG24xvVfcMZYyGAye4FXw6A7vMLmdIY3+kACh7npVtaL6ZnkUd6JEWs1LYrIuXGSKqHja2kJRTjPNaK4vYICcgkfaoGubGZCcbfetEhrNpLhdZPpWmXU/mT+WhLZ+Kl80RjTFH6TwQaL6XaPcXClUUEbnbij7DXeDYha9N86SNi69guTVmvja0USIsnlyJ/7cq6D/epOnOYY0j9KsOT2qq674ctes3vnPKiSAYOkAZq4kr+IfEPVpVPTYoYoxtliG1VQ+KetdYtMQX80IlxkpGQMg/arm38NSWcTCC8m044Gf/mq0+FbW9d3vXuGl/qdjVRO9PPkuNEsjBSGY553H61aWl/HcRrbzWXmnc6lPqJP9608vQ+iWuY5IJnYfzajVl0qTpFiQYLP1Dhm3Naa6ZXlx9Aeh9OXq6R2UvTzBCmCXOx2+a9G6bY2dpCsNtiMIMbjc1TWvW7aMnUmnPfFHy9QhVVkGWUjPpGalcylGOyx3IjR2JO/po2d3jjBYal2qgPVbNiDHKFb3bY0dB1a3ljCSSqx7HNB+Uop2jKcEE8Usb6YyoyaikubUsNEqgY70yO+tkJDzxj7sKD2m1O644xUMwzgl29vakFzGGyJAwPGDUc8nmISo7bYoCazGoSAFsDvmpEOI39f6GorLUdSbjVuaIeNVUnHHekEfmOE1Kwz7YqJyzbkZNPV1OQCBinayBjHNI4ltnDLobmopEXJ3/alTfj9668AWMMO1Bqhen2yMzR50/G9Vd88fmhVQgDbGNzVnZz6WKsNqnk2fUgTPfIFYTPXs8uOX0C6NZTxXHmT2o8v2etTFfw28GlIlQdwBis5eeIZIImxCsrL7NWR6p4yuGcr+HVBxsc4pXeRzGYtr1nxZb2qkLApYb+nk1j+p+OtWws1IPdt6x951u7kc6og1BSX0zneIY+RVY46C3vvEstwxKW8K5/0D/4qtkvriXclVHwKhWaQplgv6Co2lOkalH71RnawSWmbao2njC4Q+n5oWeQnPcUP9R3J/SqkTchM84ZStC6vanIoLYyRT4oHfJUHAquoXdD5rvsKslhhLJlSX7inPZ5f8tGGe1Lyg8aqwDiuHNX0XTIWTU74PtUctoi5VV3FHnB4qcKfauYYHG9FmEhjhWIHtURwGwQc09lYGIOOKQ/AqckYwa4hWAxyKZIsZriMU8r6uRiuOQSDxQDNO9LgYxS4A980vY/80A3SdqaRjei7aESOquTpPt2qaLpkrO6YJxxS8tH41XY2pVqxewkQsujddjnapoemApmUsp9wM0eUHjVSBUgUncCjpelyx4aM6lJ2NMgmaNipUHPajyPxCiEt7UskWlNgTVoloZsMiEHvRbdNV09LHPsRtU+Z+DOBO2MmoyN+DV8/THAOkYb3zQE9rIG0aSWomcK4AQKTBNSvG8ezKc0wZq/afSM5FcOMVJp7mkZd9qAaa48V29dzQHHim96fSFcYoDlYqQRmrO0ufWNA7bg1V8VNCcZIyPmllNnLpcq4cHOx9qimA07DnnaoLb1tu2KLmkQJ6BkjastaaK8Ig1eo57bVLCmQMn1VC+s7kYFE2uZGJGMinSiZI2yuGzjkVOJH0leKWNTp2qG4JSTBPapWDlVhJnG+eKPt5sxldNC51bntRgwQNIwGotIN1JGeMtgYAxVMwwcGtFhSpjbg1T9QgETjCkA1eGX0jOfYMc1Oh2zioBzREQJFaVEOzplVmOAKvVeS5tE0MWCnOQKo7galDAb1bdGcwJqnkEasNk7tUWbXKOtGuSdJUlRuSdgK3Ph+RJIAvma9+ANh+tYOWae6fy44XC+y5q86FIemSq1xLyNoo/Uf1FZ2baS6b3QjQskIyfgb1QtYdRhug/mmOHOTqbfH2rRdI6nFPB+WEjHfAyf/AKoqadJCfJh1t7nesmsDdI6ikjCOGCeUjYyMpVa2fSuqDZHlijA2wCCa866hb3s5/wAxYI/+7Rn9qmsLdbBBIrTXUn9JyB+9EosesS3CSR5QljQy3UqvpNusi96yfSPEEyyKl6I4EOwAOTV1cXkZ9cDFz75xV62jel8Y7O4VfNg0FTkY2ouGC1MiyFyGUYFZmy6lKXAlI+2KuortCu+CTVTAvNepIirhX1CqTxGtvcWkkUuCWUjOM4pTeLGp7ZrP9c6gVjkIIxpq9J28H8RW19adV/CwqXjLkoccjNepfw76KvR7VruYhrqUZPxWRvr2K865Hhl1Jx7Gt9Y3Ma2UYDerG9PWiuVq4v53mXCsBkVnOpwtIuGmAXFEy3K6VJJ2qkvbtNDtv6d+aVhS6U9xDCkg/MkkZT9xUF3JiLcAY/05ofqHXraNiGHlv2I3BqpuPEShSt3AHiPDocVOhtDf+VIW8yJGHxtVS1pbai0Bw39JoqaVLs56dJ5yn/239Lfp702CyaRsyZjYcqwxQDLeN1bdcA1q+g2h8kvp5P61VW9uZJBGyNj3ArZ9OtVhth7+1EILKzZULvg1E8rpdDbBFWl1GBEGUbfFBGAlDI5Gonb7VWyWtpcI1jrLDUORUnmxS22WK7jbahIIU8kPqCkjBHvUUcgA8tEyPnkUtnpn/EMPkzK6NlX7e1AWCpJKVeTyzyCeK095aLNDh8Nv+1Vk/SVhmQxHUDyK6MeWeOq4+Tgvl5QNeyTxHEkQ04xqHBFFQI9vbCfWpGNhr/4qz/ApFbsuSdS8NvQEcdiF8i5WZJO2M4qZnKd47AOtLsMQjax7LUUUyRIyyhw3YjtVkvTJbeXzLCdWz2ajkg/DdHuDdrG0uGOQM1VyiPCqePqbkpEjKCe7Dmpnsby6ZmaIhQM5G4NZ9Z2YZABGdjVx0/xDNaW5iMfmAnbJp3G/SceSW/ssjJJa2hZYnAQfzEiq3/G5zloW0n2zmr7pnWra+BinARyPpYbVR+I5okugttGixkdhiox96saZ3rcqey8R3EBLtIdfAGnNX1l4jkkhL3UWlf6gP+KxVvcwxRbRaps5BPFSpNNcrIWmVQu+k4FVcU48tjapfQvJqSVSp+aO/FImO+1ebtcj8KwTaRe4NavwpcLe2pWRj5ie/cVlnLjNujj5PK6Xa3iLnUGA+K64v4jEVBJP2qK4tsAsrbUBOACNVZeVb6Xd1avHIyYQ5GarJZFgOHdUPsTtVrfX8SjU76Dxk1jPEc1nIkrfjfVjIUY3rOS1do1+odPtwyyyxYbfms11O96LJI5BGT7e9Z27kjdsxJI57ZoMxSasMihucGtJjpOx899beXohAJ7lhQLuG3Y/sKX8Pn6QN+fio53SJPU4z7VQRSTBEOkc0BLKSck5pZrjUTgbVBqzVSItOMjE9gKcBjBpsYDNgnA96mVRq06lPz2piCrW1imU4fEntRMEAhyoOT3zXW5Z8JFoLgfVxToUZZj5mS3f2rO1pIcsD6tSKMUWbiMReokOP9OKHuYWQYjyM780FNr077Eck0p2BEt7ndAFI70DPds2c8+9RsSw2biozuPpJPvWkiLXG6kxgHAqIyF8aufel0Hmk0exFUkmRpNN+RSsCo3FIDsQKCOOGpwUnHemDbipY8hlK5op6PjjYsAF1fepXtkZsj0e4NGQhGOV3PztRkUUfq1oCTtWdyaSABC6KrRAOp5+KtulO5dtS4yMZpiW5DjSpVfmrW2tpRHqREIPfNRlVSHxxZWQP5cmRgnO4qOKIRsVEfoP61MimKQuiMSfqGNqKtCWQlV47VntWgF3a6V/JjOjG2aqb3pDiETxhRq32PBrSscKWCagf5c0F5JAOCRvx8VUypWKbp7tAcTMAzDbG9WEdyShBUZHGKWeGNkBQLqG+9RJj6gAPcZp+yOMUijW6thu4oaePWDjAPvRb9RyojIzjsagZ1ctqwB2oCrltxnP1bYNV8lkNbFWJA+KupXjUaQck1AVXGGyAaqWwrNqZYCTpH702SB0GeRV1HCgyMbGuNmZTpJ0qKrzT4qIA4I2qNhp5oy6i8qcjBAHeoW0tsBk1pLtFmg43NLnJp7LgcVHimRQO9KNu+1KCTtjauIGrbigCYW3AXk0e0YMe2f0qtt3EcyknG9W8ahyChOOTWeTTFXzJI7BSNhtRFsvlt39XxRYTzpgBgL3YUQ1uvllkXBHueai1UiO3jMpOdsdqHvopFzhaKDGJSzHDULcXzkgaQRShh4ImdiGBFHW+IwsMvv6Tin2x1qpC496fcYwoYD4NAJLbMIy8Q1Mp3FQXEK3Vn6tpRuaIWQpHgtzyah6gEEMWjIYneiexfTNafmpYvTyc0Z1G1VblRHhY8ck0+1jtFm1eqTTuR2rfe4x0ns7ZinmeWXJHpHb7mkSGNLjVcOZpjuI49x/9U6W4kl9Vw/kxfyouxxQVzdkDRboI17nuaUNqrS9QQmNwqOeI03P6nkUyKQ+sH8tFPfcn9azFhIwukcEnOxOa1UaCVMlgEG5Y1OlbE9O6pPHMFh2jB9WeK3XT+rK9vps1DSnljXm8rLKF9XlwKe3LVNF1MxPptQyIBz71GWMq8ctPQfJZ5fMvJMnnSDUlz1RYVCJGMVmekeJ4GAhukKMTs3OauHnsZx+XMpztsaysaSyhb24gdvOVyXHzSdP8RyQN+Y35ee9Jc9LRz6T+xoSToUjN6Ppqp0VbbpPiG1ucNI4VzsAauZjKyCS3mIPIry5ukXUJUxZyKuul9Q6rbkGVdYGwHxWuOTO4/xrQnUHIxcZJ96FuOlT3OoTTt84qSy6wWX82LS1XUEiSqG2watLIjw7FFNrVAWHeny28ttvG2PiruS7gS6ZWIzjisz1vrKa3SFgSKCR3d3KFOtwPiqHqF2+SdfHI96A6h1SRpc52PaqyS4mlY4U/elSS3kcTMGB1I3v/L8UkFoDs6goe1TdPtmZCCeTmrFE8sYbtUmCi6dFC3mRDDL7ciiZJtS4eMN81Hc3ixHbGaA/FSzNIYGAVe3vRJsttj0e3iWDJ3zwTVkzGNMnZawPRetPFfNBK2hR9RzkVsvMaeH8iVZAdwV3yKLNHBLv5tvpjBONjTBEWjwN8Y71EY2AGrI+1SGTygmScHvipPQonRBp5Pbam2kAALH6mpEnTI9W5+K6ZWBL6gI/g0AF1K6NlKiv/NRFsNX5zgAn6RQN+I7p0Dsda8Z70RbEHZ3JUcj2oA2WUaTgAtjih7UCZSXVdYJHGdqcy5UtF9GRQNpcS+bKhQg5ODSMXeWS3CAamjI4K1XXliEtnAuXkkIxpNW0chaMa8lh2FQC2kaRmKnJOwpzKxGWErDyQtB6GBU57ilUDbet1N0qW4iwyJk+9Zq56cls8qXBMUi7gcg11YcsycPJwXGq7O3pbf3qcN59k8T7yL6lb4onpqGWdFWAPk71ZPZSC8jU258jO+kcii5Fjh0zVvE0r6VBziuZSjFZAQ1X/U4I4J0e1jkjUf1DFWPT7Cxu7VpHBeQck7YpXPXZzit6ZCOXylZdAIb32qz8NXi2V6PNbCNtkVNeLAsmiGAY7MTzU9p0ySZARpC/G5pZWWHjLjWo/FxGPUZVx96rLu6RUZs5xQUtmYJhEtyjMOznFQ3gnjBS5jKBuD71lMI3vLQ191W5llYMQ6judqzd3dETNqkU57DetDL4Yu7kBldlxyTVH1XpsfT2Kvdhm74ANTufTbGf0ELlQdLKc/aoyQznfJ+aEkDscRgknuakWJ0UhvqNC9HzuU9OrSKp7hSzn+berC6fEfu3eqxiSecVWJZIyhzipbe2MjgtnT706EDUNYBz7mrC2hIYmF+P2p26KQMLIFGwwAB5pILR+CPSTz71YIRqYkqd98cURFGwJ0Lse3tUeVX4w2C0VVGGCgfO5qaKI68MCMdwM08MI9imT71JEupSSxGaja9AuoBYyCWYnttVNdMck6jitDNGqsCVLKO7UFeFGIAx9qrGpyigLtyc4rvMI4NT3SjUTwPihSD2raMqXW3enKx5poBzn2pT9qCKW2waaBknmnAj2pT8b+1BmEYG2c0+JiGWkP8AqGCKVd+BQFnaOEuF80gwk7le1WkN0iXayRgPGDwaz8OplGjnvVvbrGEQE4Pf4rLKNMWjXTdTBkCqv9qmYtHlABvwAearbbVGA0ZDA9xVtHomVfMbDDuKxrSGBtTKo9BHNcBpkJwRg/vRBtQzhhIB81HMWjkxkbd+xpGUenACk/8AFDyK5lLEhR2pz3LRyYCZJ9qgmlkkHGCDvQSO5VcDYavcVWXUbxlmibK+3tVorAr6xkHihZwACKqFVK8pX1FgT3p8cwmBBOMUPeoUkbA2oZZSmCoPzWmkbGS4B5/WhnlIOM5FJq1D1Z3oeRgGODtTkLazs542cKxwR71ZeargA429qyhlOPij7G7IAUnIp3ESrW7iS4Qqq+ocmqma3EXC1ZpKpOM4JqTQGGFANTLo2bmBHJBqHYitLc2sQVgF3YVS3NhKmXQZStMcpWdxCZwK5dt871y7tg7CuyATvtVpPAw6sCM1cWTu0ZDEYNUsZGoHP6VZ2pMrDhAdsA1Ga8VpHA8UZcDCj3polYt/Snz3qWIsB5bsdPzTJwAzIfpHesmiuvZpCdJ4p9owlh8twMr3+KiuWVd/0oeOYq+VOPiq10S4tsasYwBT7tWeJSO3emW0oZVIAB9vem3MpYYXIBqTNB1RBQuWB96fLcHzlAwFA9s1DE5R1U96ZOStw5bigAurxqbgGFmZSMknilLpb2sYiYNI27fFQ9QnMsgAGBxioNy+BzxW89Mr7TEltydVNlXIyKavpYgmpAwLYNID+hw6lkZuFHejYr0iYNIwS2XYA9zUGVg6YADgZySO/wAUDLN55UlQB8UURfvGLlTKjAr2AoGOOQviQaG3xvUFrceS+GciM1aAvOqmJAV4yOayq4EkUquSePapLe7ngkLI2cDYGppLNgupwQPehpk8tCEY5xQbS9I8SKojS6HqJ3PsK11t1qwlR/JlX0jJya8gLbYJH3qJJZYxhJCN996cx2NvYJeq2/l6i68Z2PNTQX8Hl+bqBTg/BryL8czTBC504xnNFW91cxagJWaNuwp+JbeoXPUrYAgSgMRQ934iitY10TYyvGa83ku3O7Mcjtmomd33dyfit+Lj8mWeemi6j4iZ5C/nHGfes7N1+YXwdTqQHfPequ4cySEZ9KnFIGGMBRn3rTwhS1opepwyprA2I49jSw9VjERYrjFZ4OdONsUjSaQQDz2o/HBtqrDrkAmCnbUP70VedUj8wtn01nImSz6e6mFWmmPplz9I9qHaCUBdZ2PB96z/AByq2l6pfO51xHZTg0/pkzy6gjBVYbnPFTQQWkHRb57hna4faMY27UN0uyeWJf5Vfn5o9TSaJ6REbi+kI3HBY962dhJBZuBFqLD52oHolnCoeFgQx31L2FS3iJ+JaO3fXgYzU62zyzv0sL3q8kkv5aqoA96i/wATLKBIVwO4NV6wZhRmbTlsHPapbmCO321B+5xzR4xP5MhcnVycDRv8U49VkVfUgHYZNV6ywNGXjmYSrwrAUM0jNIdbE754peMH5Kt3vLl3VVZNR3GORVxYwrFbtJeupB53xVN0VFmuwrgupziry66TDLGREWRsbb53rPLUumuG9bSW99YMBHE+D8mrKKJCAQAQd81lYel3JIQwvgE5bG9auxRorSJJfqXaoyk+muFt9pFVR/KKfjHIxSbK+/BqZSpGM1m0OhBYbg1m/F9jh4rkg+W2z1p42Cj3oLxIq3HRphnGkav2qsLrJHJjLizsFg8lkX6Zuf71UP8AiYJPzWlRgeD70+xu7uxUzQSER5AIq66b1+CVhHfxoT/Xiunuf9cfV99DbSNouliW9YHAzuO1Zu1lAvSWJWF23AParDxB1VbllggI8obnHegrqCKG0R45A0h5FGM67Gd76+l/1np0cvT9UCDWi5Uis1A8h21MQvIHatR0S9W6tAh+pNmFUnUYJem3/mRJ6HOVB4qcLr9arkx3rKC7COK7jaW60hYx/mZ3qaVIep3MQgmBdBgKe9U9v+KZn0jRq59qtOmxzwzo5hDYP1nYCnSx7U/XvEyXDFLWVwMcjisjPIzuWJDk/qahlnOo6gMewqFp2UBVTHfespNOxPrUEgkg+9QXMrgZU7Z5prgFS0j74zigbiVpGABOkVUmxboy4lZ23/tUKhncKASfYUujuTUkT6TlCcir9I9pYYHD4MZUj3o9WZosEquewqC3FxcNnSdPvRYjXVp3yOazyXILskXQdUJkUb5FOlVnOVDRr2BpYSscahCxfP6VLLu2JGOOcCo2tJCVKiKQbnvSOsSzlIWGe/xUckyKFLv6uNPsKGuHXyi6ucd8UaGyXdzGqkA5IOKqZ7oFiNO/vTLqYsBgHmhGJ16nFaY4oyyTmYvtgCkUBjkkUOz7+nOPmk1Nir0je07Rpnk03yhnYjFRM5JG9KrY35oBxjI2BpjBuBzUqtk0pXbJIoBsZUEFzk1IkasCSdJHauB4IAB+KJhUsCXAbO32qbVSIY1A21ALnmrOLVFp8k6w2+9CpDgnSQR7URHA6MJApBHvU2qi66bIsoJOVI7Vb276QwKA/wC9UdpIiEs0fqx/LR1pPq1eZz2xWNjSLMHYZJAxmo5VZo9eSYx3FC+hmXnFEacwOqMdJ5pGg1Ak6Tk0O8rgkEaSeKcDpT0gMV5oeafLDUu4pwnNKV20gnOaHkYSE9j7UySUBgdJwfeoXOokqTj5qpE2huoJkkt7VUOcZGd6s71iUAzt7VUyY1nBxWuKMnJIVOGzT5MMuwqBs0odgMdqvSNm42ro3ZW24FO2ZqR0xxQFnbTLj05J71aWzgYBBAIrOQuyEYO9W8E7KBltQqMsVyrNzqCnG4/vUV9B50J8v0scbVEGJIYH0+1Gwt5hzjaoNk7q1eNj6Scc4oXYjatnPZxuSynkbisx1G38iU7ZB71rjlvpGWOgasFO4GPmrmxaGNQ7OAfYVTH3xRNr+ZIqg4+9PKbhY3TTpcrLEwdl09jTJdRB2yKFt5YxiJgGHeiTIulhH6CRgAVi0VtzbkgtkY9qh8uNQNI9XfNHyK3DAEe9BsvrJK7VWwKiJKjO3tSsF1DfI71HCAvbtxXM2kn3NSaS4iQqjqcYO1QznU41cip4oy8ZLHjihriVWkwANhg04FZf6TcZU5BqEE68rzRd1GdGpU2zzQQ+oZrbG9Mr7Sxhnb3ou2t9Tas7Cm26eXICDkUfNhEO+kGptOQLcyM0YhH0Ick+5oYNoYHnfg1LGNeoZJNI4GjUVA3x96WwneZpP/bCripba4e2ZCGYoeQKhyvlZxmikMbIoT6scUqIuFna7iUfyL9OO9Ne2844JGoDcCqiOaW21NGME7Y9qNtLkvAVjIV25Od6nS0DwrqYLhsc4oO6jI304FXtn0soDM5JU55pl7Z+aMJ9OM5o2NMy+4AA/WkjmeFvSx+1EyWzLkZ4oZkCtvvWku0WLS1vYpI/zhvUsjQadfCcGqTV7Dan6mkXBzpFVLYXtYv0xGBeF8g70IbaTUQq5x7UTZXZt3UMfR3zRMksU7g27Av3FPzsHjFQyFGIY4I5FPtoGuLhAOM1ar5Mx0yoBJxvQ8zG0LIBg9jT/LvovFD1hXSVQWA07aagRpLiRI0J/wDioXMrsWcFj81Z9IiIVpCvqbYU5lqEJjtjeXCxnIgj5P8AVV3HFGmBGukDjFDQ+lam8w4wFxSl2wzt2NtxouMu+kONJqC48uGTEMhcjvTfLY4BOJOQtCuWU4YYb2NVjN1lndRO1wxDajkHtTZJ9cAUnJX/AGodjz70wb1emXlUm5G1WUJU2aMuzA4c/FBWVu9zKI4ue/xV9a9KWDV5khbUMEe1Z55SdNuLDK9gLaV4bgiKXAXJDVo7PryeSolV3fG5UVXwdKtgdWWbG29HxWluuwjAHxWGVxrrwwygj/Hos+hJSftT06rPOf8Ap7Zj/wB21PihiiUERqMd6lWTCnRGd+4qOmsxqa2e6dQZtC78CjAzY3IxQVsWXbB/WpxJuAAKVUmUHJwxp3lkqQdwfeolck7Ng0UNWMg5qVAprRCpURjB5GKqv8LgW7DmMY/prRFiBlgP0oaVFkye9XjlWeWEqsmtIpZFWS1yvYrXXPRLWWP0aoiOKt4LKQgE5x81YxWMX87ZPzVbpeGP2znSOmG1Emhi2o81aPahiqzDJHGRU931XpnTRoubqGNvZjVd/wCI+kTyZbqtsqjgZ/8Aqnq3sSSdRbwQQ/SVUD7U9rO2fI07/FA2vWOkXEixQdSt2kbYKG5qyVWjl05DCgdPnlnV5DoAC1yadY39XFdhtGBnHcAVDPsMKGJHfFJRt8wDFc5NV5YqKedRYg/V81bDw5dN0c9SSaKSJd2Rc6lq50m9qeLLg7UTHC3pKrpzyaYsbk4B0/epYCUJMh4pWiQXAHjGMn7VYwWx8sHV6m7ULb41CRxlfajg+BpVQAe9Z1cOZyihNKg10KhpCSPTjmmRKsivqVs55PFTCJI09AycbmkEbQxai5YsMb/FA+ZICyLhV7fNSS3LIr6Bge9CFwy5LnWckmnIA15jJAA25x71Xn1ZFTygEk6vvUGTk4G1a4+mdMAOOKXfG1ODDBBGaa21UTifimjODS4JGaQnFIjg2DRGNeAoye+KEJ24qWJyOcgH2p2GnVCuc7EUfYoHkUMMgcmg45cphcZHJNTW5Lg6C2RyRWeS4skVAwPP2o22AlDBwPjFBWhAHrDb+1G2jKHODj4rOrh34ZtQzIFXPHejVVU2Vd/6qhZstkaVx/eneawXOpWHcGpMpdoowTkZPIrjKwRgCd/ems5bIcaQeB7UNcN5eCN8dqNDaUygDJU7e1QXE2/p4NA/iiz+psZqNrlsABQw9zVTErUsh1NuxBqFiSSNWfaopXJGTj9Kaknuc1Wk7LINQ3OD81V3GVkqwm2+on4qsuWycVeMTka52yKRTkbmm9vik77VekJcEDIFOyWG1PBGgDFIVIORxSPSAkhs0baSeoUO65PFcmpcgHFFE6X0LnTgCrGE4Ue5qkt5W0jferS2myQDgsaxs00gsj0n/eq3qVuWt2JXNWBdhjYY9qjulMkJH9qDvbGuoXaujzkAHBqW7Ty5WU85qJhjk1vGOllavoCl1ySeasDIzglSRtxVLFKxUKo3FXK5MQbUNQ7VllGkqNvQhJYnNCPIxzhNveiXJ0HJ5G1BOxwaIYqCTKb7H5ri2WNDITjBpUbDHG1GhtYRyfkqF3NAuAsrtjnmp7fLEIDjUabeoqMAOc0Q0M2p4SoYBQM4qrIwcGrTA1AHAzsc0FdJomZQQcHmtMWWRYgSQozR4LGMqd1oS1wBkEav6aLiZpVbACBamnECsTKSufbanPG8gwc5Wmocz8/tU03rJZQQPcUAxjhfbtip4AiqWUHVwBUEAUAnUST70UnmQESEqFxgUqcRuwwC3vg1J+HHmB4sqcZGPekBWYlpcg9gKnt2ldSpcYH00jT2PUHQeRIzFifUTVrIRJcKVPoVRsKoOH1EerPPvUouJfMBORgg4+KWhsVdwl9SqmTnmhZLBwhYR1ZWl79akfUdqL8xXQekDcA0vRslLZvEoLDOahbZTitTd2nmjK42qhurJ4wToPPNXMv6mxXMzHAPAp8DhG1ZOR7UjbNwRUY9s5FWlZx3Qm9JADDg0XBcgHRcKHjPv2qjJKEEHHzUyTtlckMPmlYcq+hsotYkUgK3Ge1Gm3VARsV9xWeS9ZAQDt7GrODqZaDB5qezEqPzVVSCCa0djYQxL5k3rbGcHtWNtr3N+h07ZrZfiPNjwdsjGRT2i4qea4DdQaYbKpOKiRJbvVISedjRA6bnISXbPJou0snijdA+Vb/etPOT0w/Fcr2pZkeGQrKulh70xCWbC7k8VfvaPcAC4ZSB7c0VBZ20AJSMA+/en+bov8W7/wCK7puq1yWGGbn4q2jkD+9AXMeZMip7Vwo9RGawyu+3VjjMZpZRnSoxREKl2BGcUNC4ZsA7UbCcsFXeoWerBrry3xpUZ+9HqVC4AGKCkiWQ6iSHHBFEQu6YWRNS/wBVNR4ON+1ORwxBxjFOUK59OCDXIgD4HFGiSRgh9Q4NFxhuw2qJU1KCPerCCDbk0TE9mxW6yKS+RXPZqUIU7jiilAV8VOiIFyzafvVeJbCRsGjCDaQcisD478Zv06dun9OwbgD1v/TR/jvxdD0SVbe0KS3bjsdkrxy7uGubqSaUkySHLGtMcf6zyyH9OvIZurpN1oyTRs2X3rb9V6v4fTpbCzs4ZpiMJG2f+DXmmVO+TmjOk9QbptyJYwHI4D9quxEtRNKVnZ1UxPnICk+mtJ4a6j4hvbsQ9NuZDJjGTjAqklMFz511cSuJXOQFxjNSdIg6lHBJcWAmWMbGRMYFIPp+bwx0hCQtjAoPxVXc+HukI5H+HwH9DXodx0+N1IUcVWP0aGQk75rnrp085n8E+H7hmL2CRn/TU1n4Q6bYwNFHGXt2OSh4Nb1ukqqlQMmgJ7KeMMqjalul4vLfE3gSxu5GmtJBajH0jivKuo2X4W8lt2lVmjbTkcGvonrHS5bi0kRGaMsMZ9q87vvAI/CErLru13Lf1U5f6mxg7a3WQqA5Z1G4WplLAsrRlVHc0BdW9303qEhlVo5EPep4+pGUf9T3/mp2USpYpi1wEAGjGN+9QXKSmV0VjoHNL6S2Yzt71GWw5UHIPNIzJAVXTzmhPWH15BwcYouUqgYscHuarpJWUkj+bcGqiaa7l3ceWoxyahZGC5Gw70rOWXSBv3PvXa20BCRzvVyIRZwcUncUsqgNsaQY1CmR327VExyc1KSAMLuaQjVvtn4oBqSMoOwP3pyMCScgfFPVRpOBk0oiGRrIFM0lquWONh70fZuAWAJRANyKDgUaOMk0WwbRkMuO4FZ5LglZtA20kGrO3YSQa9KrVdHBkJnj5qyiDGPQBhRuTWdVBDElVVBg+/vQ7MwO21PEm2MZHvUM0np2OCKWlOlnV39TeoUBczFgwTj4pCGD5zzvQM0kgkORkHk1UibSsSQMH9qdkj5qBnbhVxUyHUNqokcijY8Uzjg5oh0J/m/SoiCBxQRsrbUHcKCcjFETSbYGKDkfG1Ximo/0pDtThucg7044qknRfuRUynKnK70Mnpzipk3xvSpwre5pud9uKIKejJ7UOyg7ikYm3J7E0dCdJBB3qtg9JG9WERyN/wBKnI4soNRUk96kJ9OASaBiJyFJO5o5sIuVIqFM71ZMOSfqqvJ+auepwlsnmqYbk1rh6Z5Hwk68gZqygmCAh0Oo7iqtcqfajI3JXejI8REkpYjAAAockavYmpZABHsd6HAGdt6lSRTjnIpJG5x2rgTvt2phOcAb0BZdMiZm81xtjaoep7XCKe9E2jYCrg4+ajvl1tqbAPIqfswkyEMp3IzihpW1TFQMadqNlmZLUMDycEVWpITKznua1xZ5e00CFXUjnNG4yT9XzihY2XXqzg0Xbz5k9IZSOfmpyOITlSMKGGaMjn0KchQo7VGscjyOwxv2qSe3WHSQSSRuKk5DJ41kHmoML7imPKAoV8sexNT2yxOwSVmAPeppYEjQtGAw+aDBwMhyHwW7ZqVV0aWbAPNCXA9ewA27UXGyGJVdNI4z70AilzlixbfIHtUlv6tyQWGacIljU77bbVAGVZCSN+woA1Fy4AYAmlLSQlQrZAbJHzTrdEbeMYYDODUjjTGSeQM7e9ICI7sP5SkYOcmppJo5dYABGMYqnhAcCRmIbOKdFHIjFVfYb0aPYq+sBKqDSuScCq5+iMFbRgsv96nkv2VlRxunf5o23mjfy3VvXnejuFrbK3EEsMmmVSP+KQRsBkZ045rWvClyZCyhvmo1tUIOkDQKrzLxZXO5B/enxu0Z9/YVar0pvOYup0juO9ERdKQbsfSd6flB4quGbRIrMuN98VsLK5Wa2AQ5JHFVkfTInAIAOO3tVjBD+HA04ApbGhS+kgbjFO/FsHAj470PJJnO+Pmm+dGNgdqCWkfqUHO9cWOcf3oaG4RlUqRnvUjTKo2OTSOHSbjSOantYBpGo5oCWQIhdjjuTWc6v4jkbMNi5XsZBRMdjem+jktIpNJmQMe2aMg8l20xshPwa8RleR5C7uzMTuc0Z0ye5t5lltmcOp7GqvGPN7jFbpjgrRbAxpnGoAc1iv8AxEbnpcarN5F0SAdRpZPGf4RlguHR0C4Zh70pifk2ZUNGHQaSP712pgMhRXnXT/H34TzjIklyzMdK5GFFVdx446pJeGWLEceciNeP1qvCl5Paen6NBLY5o+WSNI9TMFUcknAFePW38RpYx+daerH8nv8AvWe8R+Lupdbfy/NeO3xjywf96cxouT1bxT41sujRaoHS5mP0oprzXxD4u6v1iMGRmt7VjsicGsxDA0pyis5HPxU7ytJoW4kIRNgo7VcxkRcqjBaSX+Z3PcnetFH4F8QS2QulsJNBGoDbJFUkNzFb3MUsKMzRsG9XetxcfxY6ro0W8EKKqaRkHI+eaV2UeeyxSQTNFOjRyKcFWG4rowZCAqkknGBRvWOrT9Wv5Ly6RDM+5wNqK8MdQSwv1mktlcj6cjZT709hp+mfwy6ledGiv0uYU1pqEbA55pbrwh1zpPhq5lF+gjX8yS3XOT29q27eM+n2/TI0m6jHJMRuqg4H9qzfib+ICvYNa9OEcxmXDMQfTWe8l6j6fJ2ahtOTgbb1DJfMx9IwaWN5ZEYgbruAKzbi1gG/FV9zGXnKjYVFLfzxlRL+W1DHqPrI84F6WwPe0Rl0vjFCS9ItpVZWUH5qi8R+IjZ2pNvme5B2jxzWQ654t8QT9JK23Tpbe4/qGD/saJ2WxvjD+GFl1MPdJdtFKozuRgV5mf4bX8928NtcW88eMhhmr/o1p4p6zG46v1SW3tmGGjzuRWn8M9PtOhTeiVgOA8jDenctJ1th/C/hr8HDcWXWLAIysQsrDYj4qPrngfA83pkgPJ0mt74664JulTWtvDFO2nOsMNv715Z0jxfc9MmjivCLi3Gxzyv2pSXLsXTJdTtp4J2iuEZHG2DVe4JU98V6z1q36f4rsibN0W5A1Jnn7V5tcdH6hHLJG0Da0JB+a0iKqUB9+aeFB9I3bPNdIhTKldLDkVHuqltWD2FUksyLGR6st3phH9W1ImeTTlI1erJoI3B9jinRnBwRgUofS2QNh2qeJZZm80KAooMwLhSScnsKIaAppJ4I3FRxsFkzKCR7USVeWQEbKO1TaciKTWh3GlDwBRtrEgjDHOob4966JVEmXwQB2qaEpE7SY8s4zU3tUPW4OQxVc8AGik8yRNROke3vVfburuzyPxxjk1KjnScEr9qmxQkMwOG9KjimSOPpA471CeBqJz7Upwoy2AO9GgGmmGfVtigjJvgsdPvU10yyY8ug2XTtyTVSJtTFwN1PNPik4FDHK4OaTWNYOaei2PaUA8HFDzTAk54xUbsSpOcb8VBJISoG1OQWmO2djTCcjiuJOrJpGHtVsyA8VKRtmoTxzUqZI52opmsN6er4xnekYEDNIvIpAVE+du1OKZGe1RopyMDNFLnByMCpqwoGHouLLMMHAoZ8BsipoPURSpwfCNONW9WELBkwRzQERCLkVPHJnYNvUKd1FAyDSMYHFZmYaXO1am4f0aT+9Zq9QiY7bVeCMw4O9FQOQuFGd980NwanifA04/WrqYnkOoYxUaHDqMZp6sD23HemQthy2dxxUKSvp42UVGy6c6TRAjDKWlPqO4FRSFVbTzp5+aDEWspdxGAdR4olY8scjPxVZDNpukcbAVarOfKLKeTt80rBKq7xCT5aDHxQABBx84qzvAzNrOxzVemfMKg960x9Iy9pchGCnDY4NGQyBJBqI96EOF2IDHNSOutdSLpHelexFlbD1mTXsePip18t2LNOHbGDniqmKVkjA8wnPYVMjDy8ZGc8VOlbSXKIr4B2O+1GQuAAoG2niq2dzgLoGOzURAiPEMY1d6QSyqmhctpyajYYwI21ge9LMyl4wGGodjTpI2j2wuojO1Bnagyg0I5IlO2a7WF9JXCZyfmrBUgaAmMbn96AjildE1kZ2xtRPmpNCugFSDvQzK0ShV9QNPtUeVCvBzkD7UAU0IXQmpWGcnFMdnSR20ZU9viuEUiYJf053xUMshKsVzxQETxibUwGkZzvULRyQt+U2ADmp2BVY07E0r5CkAZJO+fagCLO+ijTy3JDk0TYTnMg5RuKqLgJKkbqApXY0kM7QOdLnSe3tRobahmQwkDAPsfepRJbmFfMGG+KpLS6Y4EgJB49qOdyUBRdxzU6NYW3kqSYxseQaS40aWK7UDDKzkMdiKbeTsUI5ajQAXt2sBw+pvtQS9RR2IGVzxmnXjBkDMurHaq0SJLMsLYWPOQT2rWRmv7C7QMQx4ox7kEkKTVPOkUf5kcg2535pYLyCZiNxpGc0tGi651V5F/DR5A7mqNPq7UXKr9QvdNuu3Aq4tfDEjOomkGedIFVuYwtWs+Rtjn7VL57rgI2kD2rVDodtaXsIeMvscqSMGqTxAbYdRAtIVjVQMqPenLsrNAWZphqkViB/MKQCLgBt/ej7zqS3FokEdqkWMaiBuarwvtVJKBg4Ub0be9Pu7COB72Bo1mGpM43FBKSrqynDKcijOo9Su+oyRveXDzMihV1HOBQDbqOBERraXWSPUjcg1JDdW8d1DK9mrIpGtBw1B+pqcqOzADfNAGX99G1zMemq9vbSY/LJH60CBq43qfRCLYhlczZ7Harm18MdTnlt4RD5YmwVY8Y96D0oo1OrAG/vU5tJRH5mldNeudG/h1ZwTRNeFZQBkq3BNYbxxa2DdajsehoQVOll4GaWz0yyyY5z9qsej9WjsLoyXFnFcoRsrDitD1n+Ht507pEN4txE8jkAxjkZrPdf6Fd9FliW5wyyDKuvFG5S0aqzXM73dsgiRnyqAbCtV0nwZ1Lq4S8YQW6MMgsDg1Q9M663T7LyhawSMOGYb1adN8a9btI1RSkkR+kPvildnH02zb87UiSzRtqgcgnn5o1o0LYOCKbPZAANC4z7VzulW9Strq+Cs8oVhyaDFp+HmVi2phVlO8luuH3HzQaTCWUaxvSBl/bR3EZkMOXA2yKqZOrSWCYeNmXOMVsYZoVjAdcfehr+Dp04wwUk9sUrNhmJ+qWE6I0sAEsm3FD9b6XY33Tfwksa6M5LDmrC66ZCx+hcL9JxxSWXSRJISJWAx3O1GtB58/8Ooi7vDeN5LcJ3FUHif8Ah7c26QSdOVpRnDr8V7PJZSWrZOGT3FA9RmdSMFh7tVTPJNxjyH/CJelyRu9jLEVQHXFjOcVX3XiN2kliYPI+nALfUK9deRnB/MyKpT4Y6bcdT/GtEvnfHFVMv6nxeDSszzSMwOonJzUMi6xv2r2vxL4I6deK7QKsE531KNjXmfVfDN70u5AmQvCxwJF4HzWkylRcazwTSAW2rtO1W/XOiXPTFjkc+bbuAQ68D4qnJZjqzTIukck4A5qWCXRG2nih9RIIO+acoGPigJ1Rmxjgmi0aOGMhkct7+1dbJ+HRWkIw243pjXC6z5jllO+BUXtQiGRWA5HtTZ387CKwJ7tUYwyEsfSOAKj2GrRsKNHtOhVVOMfem+eyfSSx+aEDkA6myRSxuiNpky2r27UaLY6G5/N1sw1DfeunZmOqTGW3AFBsUVcIuQTUbO2rUMgDbAo0e00rlNu1COwBNPPrJGrfH70MzEtVSItO15+9O1Y7AVECK7PbNUlMG1AVHKRnanHGQBvUbj1UGbnNcT7UmO9OxgZpkRfq3qZBg4zUQGCDipoVLNmlTjn45qMbHep5AcYwKjCb8UgnjYY2ohH1bEmhV9hzU8K6WJPNRWkNmVhvjauicqfmnzkstQRtpbGBn3xQB8LkrgnFFQksdqCiGQferC3XSKi9GnwCp1jNZ/qIOsnGK0GxGNQGeapur7kY32ow9lfSrHOxqTgVFkVJq9Fbs0sG+rfFRkEfvXIQ2wFTMhVVwOeDUqFeZGYhpzqG1MuY/wAolQM0NDJofgH70cJPNjYldm22qfRq5cnSXG3FWFuS0Kop9QOaFjU+aUx9s1YW0LCVShHG9Fohbq3LszDk1SORHMcbb1oL9nVV0EElcHHtWckHq3GKrAshLkugKjjk04yho1AJBFNgK8E4BpYwquQ59I9qCggwu0Qddtu9CElWHvVpZAyAI7EA9qCvYtErDc4ogJKW0rnkjNS2riMHb1YoaNdbAa2B+9EiDDAq3r96KcEIhlQPITkfNKYdA1Y5qFyylWfOoVLbyeap807Z2qFGTMzppUEAc5rkmIYA8D2op2R4yFOM7VXT5Q4Qbd6c7JbmSI4YS4wOKiilIj2PBOTVZbvGzESE/eiQI9DKrkZNGhtYGYmIHXuTxnim/iY4xhwTtz71VyLhlxIM5pJmcSLqcMF/vRobWyyrM6LkDO/2p0+lCV7nYGqVZpFd5NtxgVzXEh+vLCjxGxlyjrgKoO1QG3cjJIGe1J57OdLo2OxxUsofSNQx85p+iM8xrYAZb9DR9n1MoAHdyPmq0rqYazmiEhZiOMUdDa4TqEbghVOTUbyFmJGzfNQJGsa5HJqVU1Lld6Q2GnXLYPDHtRsXRrUqpfUx7moJEJODnb4orW+jSWO4xmjYC3vQ4JVBtSEccjsappLOcTmFAQTsduK0tnC0EmZJ8q3Y0X5aO+FbOecU96GthuidKFtbIxC+ZndhWhJYHUDg4p1pbAQhf2olbIv3AA96i3a50yHiiebzI1t9Rl7sDVAtjJp8yYnUd8e9eqRdMs42ZpY42JHLCoLvp3TnUA6FcHZhTmeis2xXSPCvU+q6Xgi0xHknbFa+L+GUL2wDXv8A1GxYjirvpokgQBZw6AbDNWtveiPBlHqNVM9p8XkXjDww3h8x6XMqNy/YVnAMYFey+JFPUbG4hWNG1DK6hnBryG6tZbO48m6Qqff4q8btNmjI0MjYXYdz7VpvDHhi56v1FEQhrZcF2z/atT0ey8P3HhhIYRFqcgPI/wBWe9W/gaLpVnfXUVjOGYYwv2G9PY0NbwZ0eGFVNlGWGDqxvmruyhhaRMxgeSAFFWeQxGRmoZIMSCRCFNSvR7IZYmOMkV5B4s6XND4wSVYJTHIQ2UHNeyxzAKSy4P8AvWQ8St166vFh6ZoggPMg5H96BossVs1rFN1ORVjiAIRmBx+lec+Neonq80YtIpktEONTD0k/FbOy8BeZL+I6vevcMdyM7VqJOnWBiSB4UlhUelCNqnykHi8W6P4avOq7RRE/JXFeldM8H9Os7OOO5tlnlA3LDO9akfloEhTy4wOANqF6ncm16dNOmXkVchQN6Vy2cx03t4rqC0ZJHegob1ww0kk54qyeZXVkjBJPbFQdNs1s5TLONTHge1Ztks4kmg/PUqCKDsY4kuMtl8djWiN7bTJiQb+xFUV1DG98n4ZsAnfFICr6WB1A0aT8VXvCVZWj3B/tV+ILUAZBP3prxW5+nj7UBXqVkj0tGCfeokgKAhRzR+iNDkHGaRmVdxQFRcrcHbfT7V0ZQromjVl+RRs0ynIHNAyMuc5qQEu+mWMo1Qho39hxVHf9Bu2UzWrFWX2PNaaNdVSlZF3XOPansaeeNF1BQxuQT+m9DeZHJBKl2FKD6lb2rf3MbS7OvPesrd+F1nupGmY6H22NVMkWMxD0yCeRo4WWTpkinVGd9J+KyPinwWLVvxHStUkHLrncV6tD4ci6bbutm59X8prPyx3MN40arpPPxTmX8TY8UntniyHRlb2IxQ4GCASa33Un8/qUgvoYtYOAwxvWd67DbQBTDjWxyVrWVmqZVYrgnKgVwhOldJBZv5alKu8PYDtSPiIjG7nv7UGRtURKMe3Y02NtILMc+1IpZtTYJbikCHDe2KAVlUgOp9ee9DO7ajnGa52zsDtTTsQT+lVIm1IrEAHOCN6fEdSuS23tUDseKdGwUHA7UEcxCkHFRDG+acx253rgAudQyaAZsTsNqcPUSBTSfanISpzjOPemEkZ9OnHq96RgBkkUsShyWLhfiuAyck7fFI0Rpf1pzDJOKfGpxtgfegjQAOafAMucHApG/epYEfB04+9KqntJ5YY432pSntU64Cern3pCM5K8VG16QBQN6eBjc7UgFP0sdhg0jNYZ4700KVfNEKi4weadoTPP70thyBsgjAHxRlt6lbvjnNCrnBAztU0QLDCtjNTQmcBh32oS+RGgbO57YowAp6W3J+aivIxpAAxnaiewzfDH2+aeFNOu10zEdqYpyMV0fTIqnS+1HoygqSpagyAoHuanDkRDGzdqiqgeUFZMYxvR9rMyKNOAKCuQcBicnvU1kQw0HOTRfQnsfgqDNpBztmpoIsgOGUdqilBSMRbgE7URbw4iYHlahR8ySwqrqq6feqPqkeJSx/m3q7uC7oqZJUj3qs6lq8kJoDY743FVjeyy9K2Bh/NxU+VBBbj4oVTg4NSlvQoxkVpYiLFZCkfmqz78FTxTnXMJll1Fn9zUds/lKgOCvOKIvgZLUuNmzxWf2pUaysmFFGo26NnOOQaBYnUDtmiIl1RkjO1XYWI2SRWYsFwCMYoRyVDY5qZywUFttqDZiz/FTDtSRzlVwaf+IVg2dsiolgJbJ3+KjljZGI0kU9QboiG3Vn1M3p9hRa28Q9JG1VymVcYyKIjY51M2SfmlTgprK3Cl8E/amfgkkHp1ipYnkMeERyT7AmrKKOZgumCXWR2Q0uxpSmwZX2zj5qRE8sgnc1bT29yqkyW84Hv5ZGKob2Qlwu+KJui9Jby7YLpU/tVe08jndjU4hAidsknHvQwJLYxvVyIo+0DOANOWouzYu7RsMEVH0pSZOcA96L0qt4NBzvvU04RsxsyFgKI6dI7ZUaSaHv4ladQAWJ22q06J0O7uCrRRMijklSKJjb6Fyk9jUh82PDEL96gSB3ZkAJPbath0/wAP26ANKHlk9gdhRq2scMmFgVSPcVpjw2+2GXycZ6ZW26JeXcWJEWMLwWFTR+H7uIjTIhA9hWwkzI4U7t/SOBSy28sKhn0j4Bq/xRjfk5e4zkXTr1cZIFHLGyx6ZF9Q70cCxkABLMatrW0YQHzYwSewqM+KRpx/JyyZWaPzVwQdqqr6FFJBXf3rcy9NkkYeTECe+WFQSdCEisZ4ljI7nvWdwn1W+PN/YxFtbSGQNDIVG1X8Vu4j1Gdm2/m3p01ittvHq522qfTJHGuteRWdlazOUDZ3Sa3U7nONxVb4k8Or1ko9vJolUbZ4o65ISQgrjO9FdPbU2NgCeSaJbDs28o6haS9OuWt2kLKDgsoIGasfBnVB07r8ErAaSdB/WtX46TpkHTmgQr+JchgFOd/msuvhya2hjnupNGtdaKqE6v1Fby7nbPT363kWeCOQOgBAIOaz3iXxVa9L1RxKJ5lGThhgVi/D6dYvYNNt5yxpsBIcD9qtul/w+a4na46pcF3Y7qm21K2T2qKGDxX1jqfUAsU7IhOdKA7D2r0/pwPlRvcNliBmk6Z4X6f07T+Gt0Vv6sb/AL1dJYQ44yfmouUvpUxAOrSnCDairezjTDPktRT+VEgES5PxQ8skjtjGkCs7VyJGCjKtp0/aq65SJZtYHo70VznODUgtg6+vGD2oPTZdOg8pTJIo1tx8VNLEHkySKlZGO5qNkON6DB3lsunIIz8VU2mbbqah9lbuatHyrHOagmhSXBYHI4NILOQD7/aoQrZ2XAqCG4eFAp9Qo+GRJl5wR2NFNCbduWxTJItQwRjFFMOPUD+tRyA4Kg0gq3h9XIoS4tCdwwqzlhZVyag0E7gZFIK2NZInzyKNinwRqWn+We4pjgAHagJXMbAZxQ9xArcbVFIQODg1F+KdDhvUKQMmgIJGNqoesWcU66WJUttkbGtSlwkg9W1VfU7dXGqLseKcqbHzj4ztrvp/V5EkDiPPoJ4NVVmY7qZYrg4VttR7V771rolp1q2aG7j9XZu4rxzxT4UuuiXBypeAn0uO1dGOUs0xssCdf6cOmvCkOpo2XOTvVNKWbtj5rb9IuYLno723VAvmL9DEdvvVPc9HMaO4kDRE+kiiUmfeUlAo9IFcrAxhc4Oe9LPAVBIOcUOd1JPNMqSVdLhVYN8imvnSAacinJ4ripMJJIwDVJRgA98k05iEYAbkVHS5wfmmEigtgbUhOWO1IGOxFdkHNAITls429q71HOBtSHNLnPegOHIOP0onQdIYjGeBQ0bYYECplMhOdVKnEzRERgcMe1cq6Ac4OKlUOcbgmukTBzj9KjatI4lBJ2BzROkQjJBBIpC+lVCIoPvTpS+AZCD22pW7OdG6gw2z8VKqYjyTv2FRRNpOVXbvRalGXUR+wqVBmQ4UkCnKAGBFPkyQMKQtP0ERggb0Awk78U1ELHVTyjHBABNOOEIGPuBSBy5jO7bHtUqYXcDeohjG4/c1KrliuRhR7UgVt31EaajmZJRoJOR3NTLiWQE7j2oPqD/moQpX1YNPQA9TgCkMueN81XntV11YkxoW2B2qlfk44rbD0zy9igA4GDuBUlqgLMH3GKHgBKnB71MBpfY4zSMy4VRq8vODtvUlpyhXnNIf/cyOK60BC6uMUX0J7W7Elw38wOSKc8uskxlsnkGhRKAp05DfNTQOcFnP6Vms15XT1IQAOxqOJ/yWaU57Uy7ck7D01CSAMZpxNB3iaZSyfSabG2QO4pbssHK6srUKHFbfTP7F24Yzrjge9G3jEoEQgnPqoK2lCnGAfk0T6VBPJPtUX2qK9tno61B1BdyDzQcqEPtx70T02Ge5uFgtVeSRjgBRmneyg4oukZ33xRnTvDHU+qz6LK1dlO4ZhpH969Y8E/w/sun2iXXWlE9y4DaDuF/SvRbVLWGJVjjWOIbAAcVG9NNPFrD+EfVGiDy3sMTn+XRn/mh5f4b3q3bRSXsII/mKf/de85jlBEEv61TdR6fKxLLpc987UrTkeXWf8M4NWLvqAf4RSK0sHgDofTIUkNv+IY93YN/arJ8wvt6WHIq5sg0sa64wfkmlunoBbeF7T8NqjtbaP+kBADUsPTDAoYWyLg84q5ifW4jMgBHbFWEYXGmQ5XFHslZd29s8KqsSylhgqRkVT3Xgvo9wpM/TLfJ/oUCtSWiiGUABoa5vWthrYAj7UdwMNP8Aw98PuCDazIp7q2Mf2rzrq38PAetvb9MuPyyfSHGcfrXt931CWW3cQoACNqybT6X9SAOOTitePHLL05+blmHtmujfwruLUeZf3aaO4Tn980678G9PhuNcfmuo2Y6u9amPqs8ONy6/0k7VHayfi3aMnRlskHtWuHFZf2c/J8iWfqo+ndBsrSXzY4lMmdjJ6sVfQyLExEhADc6aOmsrSIHLMcD+rmq5WhSXUEyp4BNaST6YXO/dPM8Eat+H1lz3zQb5kdmc5Jqa9njWTRHGEJ5wKm6VIY7je3ExI2Uiq9Tab+10i6dPbW8paeNnPbBxUvUrizuVDW0TpIOcnIqyg6fFLJLcX8awgbhAQBVS7i7uZUt1VYVBxtUTKW7VljcZqhrV3imJjAYnbOOKtdV+0YSMaR3xsaG6RbPI6nB59IrY2NoYF1TYLn+1ZcvJJW/x+K2ds3Z9MvXlVnkZcb5Jq5SBZCPxDeZj3NJ1bq8VvmOPLyeyis6zXs4Z5ZTBGdxnase8u63/AF4+o0N4LIR6HMQHttVSDYROw9Myk7Bu1V9rFb3FwI5C8pPLA4qzfpfT7QGSUtge7ZxSsmPVqsbll6iOSLpMxICBmI+nGarL7pHTJ0Ks1xB7aGx/xRjS2MoJsnxIv8wG5pjzRxqZbhmZBztvUbbSVnLTwZ0xZ3mnuWnz2b/7rSRmx8mODEbJHsoYcUNLdWl3eRta28ghxhs7D/am3HRluZQ9qWTPK80ee/Z+NaDpvkuAQUwOACKtUKAY2FZqy6LLbQli+g8n1VJHdFH0CQyEdwM0t7XI0bHBySP0oZ7glyqnb3FVj3zqh1D7EnFSW8oZdQINGwORxnGTvSnJOx2oaF8ZPcGpjIMgHf5pmXGOcCp0YEVApG4NSoTjbc0g1d31u1gQqXy3sKFbrsXlZEbMvvWEmuPNbUMaqntr1xEY2cafk1v+OOGfJtrSy+IYWOBGcmn2nV4ZiQTpPzVD0trXVK12RjGwzQF5Iuom3BAHG9E4vLqHflePdbV7qAkfmrn70RDdQhMhwR7ivNG6hIGw43rVeGnjuomVgwI96jPjuE3V8fyZyXUXU3UreN8NJTf8TgI9MwH61FddJiuYCQNJrGdZsZ7JjyY/f2pceOOfW1cvNnxzem9S+Rxgyqf1qQSDOzV5KLq4SQGORsD5rYdH6k1zaLhiJV5p8nDcJtHB8zHkumt+rmopYwwO+9AQyytg5NTm4KcjNYOwhtkIy+9d5MWnGkUhvUIw4K0gmjbGDQEM8QAyo2piMn0sMGiiNfFQPHq3PIoNXdRsgA0sRxjc1RX3Th1O1kjkj8xCPbNaO8LiB1BztU/h4wiy0NgPk5p70mzbwvq/QvKcWskLqpOA+DtQFp0i/s4Z4rrSYV3Uk9q+i7rpdrfJiWNHAOc4rNdc8GRXcUiwSMoYY5q5yJuDwrqfTIIpGiB1NIuRj3rLXMDRPpYEV6x1zwT1Wx/MRPPWPuOcVmusWDLB/wBXbMg9yuCK0mTKxjWsLtbb8T5Mnkf16Tigzk79jXqHTupwT+FL7pzBSyoVTIrzaRdJKjsfarl2mwOTv8CkHzS49VJuTVE7cGnggZJpg5FOcA5oBCcj4pBua4A9qccDG1AKm3OKkhOMg8H+1RDfcCpACFz3pHFiypHGojbJxuakt9P8xycd6rrfU8mMkZo+MgLjG4rOzS52Rl9GCPUTSsCWVRjA71Io1Pz2qLUPNKgEUjSnSoK8E1PbIxADYA7ZoWRhrxgk4qYFmYamOAOKRumaRpNIAIG21SowWEpghuSaa+iNlKE6iN96cpV1Oo755pA0E/QDkmkU4bccVKmhSWTBPGaYhAy0h9JoBJX1roC4NKHKJ5ajc81AsjvLmMbA7VPJgJ3Mh70BIQRENG2KivvWiOAduaezjSirn5NR+ezgpyKAE6q4lhiwhyB71Ut81cXpAiIyMjiqh92rXD0zyPi2wamYEb1HFwFxRLjK44OKL7OIwwI57b10Den4zTYQAHyM4p9v6m2G1FApceSzkbniprRvMwrLnTUCEE6RwO1TRPodmQ4zUKJ1DHnsF2A22FQZVowuQDjmpJ39TE4OaEl9UY7H4pxOw0y475NQjn5qWQZHvUdaxB4GwpySSfQp+rakXcVo/BHhufxB1IRoCkCbvIeBSt0cd4c8P3PXb+O1giJ/qfsB3r3bwx4N6d4fhH4eFXuiPVI2+Pt7U/w7YWvRY1tbGMbfW5G5/WruaU6iEOARgmsLla1mOnao44mVn1P8dqGmuWWMnSSoFLBEpL6Tle5rpIgYdEjEHlSKiqmlLc9UeHMltr9J9WKtLDq34uMeccH3xVF1SOS2l81WXyn2b2pvTJdchVtIyOAc0t6NZ3ts8kgcMWwc7dxREcUkaiRLg6P6WoC16iySMjDKqcU+7vUjDJIp8px/KdxT2FmZSSrL9VWlpOHUKzHWeAawUkl3a+uwl8xc50uc0b0/rplJE40TjjFOZaKx6BBEhRzLg43qp6lH+ITEer9qfYX8Uttlydfce9Em7RU9AAq9yp0zF2LiwTBDMp4OMVSOWZ2Onc1qL7qgEojvItcZ2BWqu9ht5fz7SYfKHYiurguo875WO6rRaTt6ljYj4oDqCTwOHxIvvsavrfqskEyQzp6T34q+l6b+OhybcFGGx8zmqz5Lje2WHFM50xkcrTIHDkjipYGWKVXZQ+Oxo6bob2EwLoywseAc4oyXpNrpUxOzE/pVTmwqP8fk2gh6paZ/PsgfkHej7bqPTYFaeCMiX+k8iquTpsURAluGVjwAmafY2lna3HnXswkA+lVH+9Rl4WdNuOcmN7Ezw3vXLgOqFIRwCcZo6DoEtuhARFyNzkGpOn9Wa8uTHbxhLcDY8VNPdubgQxsfls1zZ55Y9Ozj4scuz7GyjtMO5HmAbAdqG6/fvDZMYmweM0aQiKCX1HG5qk6i/wCPkEEY1JnkVlMu91v4frrFRWt5Mv0Rh5SfqIyaMjs7u8k8y9YgD+SjB0YW7KySnXngdqt4YgpDOxOPery5v4zw+P8A/Smk/DdMi8yVPLB47k1Rm7uOtXciq3lRKDhdOc0d18tedSiAIZM4AG+KtYNFkQ0UCnIwxC1la6Jhr0B6H0a3htnkZj5u/IxRy2o/CvGyLIDndhRMUi3DcYHtxSdRZobYtEyjFRuq0DuI44bdBJoiiXcgcmqbqfXZEAi6bGcnYHTzRsME3UnMkjoFTkHipLOOLzTLLH6I9l0r3qi0CVryO1H49pnaTfSoO1S2zSWFxCukNDMdtt1rSW0UZxK7sV9mqAxJcXXmhRoT6Rils9KjqlmfxKzliYiNx7UDFFLBPiORmGc4AOK1E6h0KlRg+9Am3kSMhMEe/cU9lpWT3s9tcICoKMNznFHRdTjMfrGk/ag+rWD3dp6WIdN85warVhnWyOW1sO2N6ompjulYalII+DU4uQMYrMdAs7xQ8lxsjfSKt2V0Gd/0oALDx76Qy/FMe6RT646GM7pITHke4O9By3BkkJbAOa9HHHft4GWevS2F3BIuGjK/INXvSOmxdQgP4eca/YmsYj+oCirS+msLlJbdiMHenlhdfqnDllus/Tay+GDaRtc3GHKjOnFUdr1WeK8VVCqmrGAK2XS+vRdbsDG+BIBhhWP6hZiDqZABC6siufG3LczdueMxkvH6bpLpPJGWAyO9VfVYlvIWiJBBFUPiVbsJFJaswQLkgVWdM8SyJMqXgyg2zjesZxWfti6MuaX9cgl/avZzlJBgDj5onokrR3ceg7E4NWfXxF1SNZrZwSo+mqG0LR3EQ4OobV2TLzw7edcPxcs16b4zFGKjiiYG1tQKoSFL8kZouzjLSDfAFedZp7eNGC3WbUGUcVXTWThm0Zq2LaX0rU5ZVUA71G2jMPHeWwLI+duDSW3UGmQiVCrCru5jDbKDg1Xz9Pl3KIf2qtkYkiOcnfNATf8ASXYZD6G7U51eFsSKy1Hd2k00WqPJ7g0EtrO7ZAQRsas43DAb81R2yt+HXzRhwKLilC7ZIpKWsixMhBA3qh610Wxv4TFNEjZ+KLe7CrzmhhOWfORjNEK9vKfEP8OJLeUy9HkIHdGPNebeJekXtlODcWroOMgbV9RsySn3OKC6h0q1v4sXMSOMcECtceSz2zyw2+SQhJxjGK4x4GRXtnif+F0MxafpjaH50Z2NYT/wfcx3n4e8ieIA/WBkGtvOVlcbGLKEb4pcbbitx/4EZ5Qq3R0dzjirODwL05YG82SV5MbNuB+1H5IPGvNY+c9u1L5ZdjhWI+BXq8XhyytrQC2ttbgcyDO/60V0vwha3cPn3ThWB3SMY/2qfyQ/F5VDYzyRKI4XyfcVZW3hPq9zgrb4GMgscV7Bb+GrOJwYgcD3NWTWpj2Q4UDn2qLy36VMHjUPgvq6NqeONV7kuKJh8IX88noeIqO4cV6v5cFwuh7hGJ7BqD6hYSWUGq0RW9xnFT52n46ec3HhLqFu41KjL7q1K/hyKCAvPdaZfZV1AfrWnveqjSYbyCWDO2pWJzVZNPJFEVt3SeBhggoNVVNkzo6HPOPMicNHnAYjFRv0e9juACgcYx6WzWsjvYF6Z+GjTTr7jfBqe3vbK1swqzI9wqkZPOaZW2MLPYXNu7a4JMY50mh2QCMldyTjFbizD37u9xNmBN2x3+KZDaxXV15dvbqFJ2yucfNX4Mvzf8YoARvpAO43xTpHTAVSCfatnd2EH4w2sESeZ3Yiqi76eIZWV4QBwSBt+9E49i80n0prfTHESMau9DmR8HPGfarGfp6YJiJQ/fNUl/Dc2rYlyUO4IovHYePLMvSaS90kqMcYFRRTmNW3BY1Xs+o8U0Mfen4RXkOujqQOCDigRt3ri22ATSLvxzVSaibdp4frBFTu3pyTv9qS1iZwSF2Xk5pk0ilttsVP2p0XqLgnGaWPKlgu+aH177Gj+n289ydFtE0rn+kcUXoHxL6V0/V3p8jpGCCMtVivhnq0mPySoqdfB3VAudDMT71HR7UCgvu2ympWEYiAVcnjJq4Xw1dgqlyGjA2GBRx8EStbeatyCMZ053pl5MciKxYUdFbtPbLapEHbJYFV9VavpfgGW8RGEzIhO5Ir0Dw/4Pg6YiCHy2m7u+Dn96Vz0cx28p6L4K6r1IArbtFF3Z9tq9m8F9Cg6L0kW0Lh2zl2xuTV9ZLJ0tCsmiQybAYFT+X5ULFUWORznjissuS3prMJA4icOWWJiPgVJDFHLkuZVb2IIpkdx1GPGiWMjPcCipJZJEUSAeexxge3vUqDx22mNzG+3tmh5TM0WtWGFPcVbCGO1gOWy2M4Pc1Ux+e8jejShzsRTJT9aZJLRYn1AMwZjjis7DM9t1REt84OwJrX30STxtHIMj4qvtOnRQyCQDzG/lz2oDrG2FzFMvmL5ucmm3EXkXEcTHUx33om3spLNJGK/mltWx7VV9VtZrjrMMi3BjXHGM44pAa5ijfUqE+4qO16bDNNLLMcAn04OCP0qtS8ks+ryWch85WXUGIxWjtbm3ni0sFDHbbmgLXotuqDQilnA5zmi2tXbUMjY8UNah7VDodSxG2+KIlkuYYNZaN+5XYVUCM2iXFzBb3EWFJ5FMvfCkYJNrMR8EUxeqTwSrLIito/lzRK+K7YyaJomjJ7+1a43Od4uflx47f2ZvqNjNAFjvoyAPpkXeiek9Ru+mqCHE9sORnJA/4rWTNb3lsVm0tEwyDzWGuLea0un/CkGAngnkfatZyzOayc14bhd4toeoWd/ba1kQjG4JGRWbuupx6ilooK92NZ2PVBKzx6tZO4ztS9RtLu4tR+GkSNjyoI/wB6zvji3x8sl+sT3cRnZ11qdhnagbtAw9agNz6aq42v+nWsSpMszMfUqjVirSNrpxqeIYfep/Kv8O/YCa/ltozDExQn2FS9GmufO8x5GKDnVVlFFG96qSQAkLncc0sVube5/OjPlk+kCnlyyzWiw+Pcct7GEy3ugk+Tb5x8mjWRbR0S3QAYyWNRzeXI67nQm6rimRO0zt5/HYA1ht2CoCWDSHvxQXVZzHaPoJBO3pGTQvV3neaOCAlUG5wanZhFCDJwo+9IKLp1heSSpKrCGEHLNJyf3rVW8UcsWIm8z3bO1UEiXPWCYYtccQ5YZG1WiXcPSbZLSzBlkA9RPvRSh3+G/wDmsIaZgpBOkHFQeKJo4JYoI2GOWHvUFnDdvcyXcxcFQTg5FAxwtcSSTTKz6CW96NGJla3/ACooC4eQjPYVe2vlQMlqIyTjJJG1Z6O4fqPUo3WFAkA2C7EmtBb3LyoZJITGw2A96VOO6kTJpt4SAW3OO1SW9jKiriTb7UkNqJwJCxWUHPNCzdUu7a4EbxBlzzxmj/8AAZ1W7/AaFlAy3fFMt7j8UCYZV/7SMGjeq2kPVLQBnCuNww7VnYLF7WZjK3pUchuacJdSRllIdRk+1DJBHFuyGmdLmuHuGVCCB/VvRd5MUkC3GkqRyu1GwjLjI0gn4AzXNKw+pSP0ouzktGH5T6W76qIe3gLapZQ3wDRsaZOeCQZBjbHviq6a1cNnGP0r3g9NgZSjW6f/AKiqi/8ADtrOrgxBS3sK7MflT+PJy+DlZ1XivqU+3zT1OshRya2nU/BcxuGW3b057irHo3gZItL3b5PsK1vycJN7c8+FyW60y/h5JraR2QtqI2rVx2bdQjiknVhKvOBWii6NbWyDy0GfeirWEKwVV2rjz593celxfG8JrJleqdJvbl0/C7IBjB2qluvCE00oMuEk/wBNepqAn1CoryDzV1Ku4qJzZT00vx8b7ed2vhe6th6ZQTUc3QrqCQTeSHPxvW9WFsURGmmPBXNP8+RX42FYa36jLG+m5tWGB7VZ2XV7TzQsiFM7A4rSS2seQWjU/cULP0+0nBDRKPkCjzxvuHOPPH1UkUMT/mL6gw2IqQwouMjaoImSyg8tNwOM09bgSx5O1Z2N4nZUVc6RiktWE02kCq+7uPTpU1a9HgwgfuaWg7qPS4ZoiXQVSPYlPSD6a1syErvxVPcDMuBSNStb443pVtV/mFH3KBBqFQag65FMlZcWsZfGDUb2CtjSSKuoo11AsM01o0DkrT3Qzc1tcW75jbP3qJbu5XIkjJHwK0ckQY74pjwA7ACn5J0pYruKQYf0H5qG+tYLmMqyq3z3q0l6SsgO37VVzWWiQqHYU9lYzF70loCWg3HsaBFwn+XPGVI9hWte2l7HUBQF3Z5k8zywHHuKrabFJNKshU2zrlPqUjG1dreN43tsANsw7V1xHHDdbxlXbkip5LVG0vqKhdzjimQ2G6SVmjI0SryKni0sSrElSMGqO8nUTrcRsMg4bBq0hYZG+Sd6mzRxU9U6G8RE/T8nBzgtRou2HTDNMhJRfWuNx70fc9RtbVUW5mSMnsTVd1Ex3EZubGZHXGl1U5BFGzUUt7Z9Xs3EUTOq9sepaq7jojJClxBKwQ/UMcVbeFreC36pdGN1IYbJnjmrrqFn5trJ5GwI3FVvVTrbztvJs79TrJH9WNv1FVvWNEfUDLoHlsARjg+9XHV4Vi0rNjUdsgVB0yWIulrfKjxE+lu4q/8AqVd0y6ZZWjibTDJvgnvXoXhiCGDpM91rV5ACc+2Koet9JsFt4xGhicsMFd6faQNDatbxyOFblvejy3NIvH9hYJD+Kmun4BJH37ULJeSOPLbBRmycin30UkZWJCSCe1DXq/h5Y485IG9bzVc1lntDNC6SEDBU7inXvltaxQPGGODnPNdDIxjlkO6rtQ8shMqOmTn3p+y9dsx1TpzQN5kIJjPb2qsNbRj5oIYAGqLqfSpIw88KFox9WBxQ0wz30qAM0TaxlpAoGSTUUa6mwNq2PQ+i/hraG6nUF5BlR7Cl76VllMZsR0LokCRa+oPs2+hTV9b9J6A5UGFh7ajRU8cadDt2KASOecc80X1uBIOiWJSMeZ3ONzzWdkT+TL2Fl6P0SRCY7YFE5ZRkUV0u46XYLotYCvu3l713SIXTwndyFcaz3/SoOlpbJYzS3IfUx0pil4yzsXkvS6TqtiZAQ5A75FEp1y1ZWMUTSBecDiszbQRuV/DSAyg/S42qxh6bd63uHjCKdsJ3qbx4xeHLll6WUd1BeqSLZmLd8cUd0/pKF/zQVU8DFG9CsWFvG0qiJPY7GriSa0hwHkRT8mst/wAdMx/qBLS3tIOQFHuMVE+iRMxZJ9wNqIN1ZuSGkWQDtmkN7ZsoiidAfbiksPAzQ3AlmVnI474p46obi78qZQEOwPBFEoNKl3G3ao/IhnBDKQexAxQHX0E0cWq1YEjfSe9CdKvwt6xuQQ4AAB7UD1TqF10u7jt0dZWfhTzigZ7lpbzzZMDYA47UE1cxS96om5VEXPtk0Q8ODvx96xdr1GWPqio75jfZWz/atnDOpiy5GQO9AqqvIAGLL+1DQMiTDzDgVYSsrOTkEfFVbygdQbCa41GDgZwTQBN7OulniIdu29VMKiWUu5xKDxUahor6VSTofdfYVFdStGjun1ruDTG3X0Dm+WZ4hsMAiktH03UeAA2aDs+qXN1GXEkbhTgjap5p5dphCGC842IoojSwSSecC5Vj27UDdTO3UYmZmVS2CAcg03pd1FcQ+YxIK7EGjr+1WGETRnVj1YNSsLdR/iEAVmjwdjnNBXVu0saiQ7jbOMZq2gkhMBnB9PfPakewe4u0upm0268LxmtceSxllxTK7LYxzrZJG7nQBt9q5bZmJJJx7mrKF1fIUDQOK6UgKcYqLltcxkmgMFtCrMdIJ9zUwRMelF3+Kiz+lPBOcCle1SSGPZwuMhdLfG1cYHC9mxx6sUXDGyklqjuXSJcsQBSPSCHzB1BWkTSGXSN80ewHMjDI7VWXN5i2HlYJX1ZNM6b1OG/TKuPNAyVzQFhMpZCVwD22qmtuoq91JBokMqNg4Gw/WrliSmTtQ8EYAYhFDtucDc0APcTrG/p9crbACrK1h1rqmUcZINR29kiza1T1nud6h65eG0MUOQPMPqPsKCOmvDLL+GswEztkDmjR05LKKLWuqRmBLYoTptrZ+a9zHKwjVcBj71ZxoAUzMZBnIJoOJbwrFZTORtpNZCSfyrJ5oXA1HBXO9a3qA860mj7lTivNbuaY9ShtI42Kq4DbUYitV0vpuLIyykpLIcgg0e1ncLaGUzEaBkZHNTW8i5RpfpQAAU+9vUnhMaj0kc5pGFijee0FwJGDA7gbUXYyxMT58eSvBIzQiPohCBsJ7URA8ZYLmgiX1xEuRDHknjG29AG2mmuU80KIseod6uGtUkkUjbFR3CCLBY0bCrvLBYwZbWQxyD5qv6rBcRRW1wQZN/WBvmreeQSIRGCQe5roSJlSGRwT7DemFNFepcZBi8r9OaKeXzbfChlA4OKujY20ahnCn9Kdb/hhnUUx7GjZyPTFkU7U0xIzZJqKFwyhjS6wGIzS0zQTohk2xTQBox3qGWYamHtQySuXAzT0exRwoANLEygnfihnc+Z74pHb0kjmlo9nySGWfGcAUdDMoiI5qpgfVIRwaMjIVCaWgkjYEk100yxqCRQLuFJOqh+oXQKKNW1OTYtFz3KtwaFe4wpAO9VhuFPDVFLL6cK29VpOxru7nAqWOMhCc4pnTlzFluaKI2oOIY7RpXAzsa1NlCIokUdhQNlb5jXberUaVQDvUW7UbNshNZu9nEcpIO+ateq36QxlQ29Y2W4aWc78miQrVt+I81CtR6cDFCRMUajI8lcmmRzOQmFqWOPUgyd6hcYxip2cKgxzQEXlgE70w514FTKNmY0kEJkkHtQaS2jOSWyKF6pYqylkHqq48sLUF0FC4JyTUhkwmnOTuKazIyEOoye9H38BRtWMKaqOpgxW5cEcbVUTWfZhcXc0BVToOxplzZzLsp9PtmheiM1zPcTBvUG3+Kl6ldlpiInyAN66cOO5OPk5pgrryABXjC4JG9E+H5C1momJEkZ0nPOPejLbpt5c2v4lEDA/3ofElrIzywlCRg5FGWH1FY83W6i690aHrAGZWjkUbEb1noeg9R6RKs1rcCTB9URbYitN+IGcq29D9R6lBbuqOGJxnIFT42L85fTF9Zv5LHq6XUUMkDH6wwwCfitnB1mNumpcscBlyf2poubPqFvodEf/ALwM1l+uoLYrZRt/05dTseMnip1tUp9xHH1WZ7l8eSdlxVfDGvT2n/EWzTQkelxytKILzo9yxjieSxY4JI23o8SmW2eBHRRL7nJxVFoPH1aGW1hSdW2OAw3wKKnkumVEskRs8Fjim9R6DAtrA1k/rOFZc7Z96C6hDfdICeafQRnUDml19GmaO9hu42vEQLj+U5qn6rIXv5CN+MUZNdXUxhZ5Q8LDZvn2qS7tUcrJE6M5HqXO9aceWmPLhudDul2SP0CQyL62Bb9az6W+twEb152Fa/oqmewaE4VgNOKpYui3lvfqzxsUDZ1Abc08c+7tGWHU0qZomjYll3HOKnsLwwmZDGskTjdWoy9V4rmbAGhhgg1UW4/6gqTjJrWdxhlPGm2fQoZL2S6jB8tfVoI2FXzIBHEc7EYAzxTun3KW1tOjLkuNIqONSykgHAqpGeWXkOu7s3FvDEFCpENq1PSpLfrFisNwmXhXc8CslDbySwySppCx/Vk0ZazXENtphOBP7c1nnjLNRpxZWXdWfV4Gj6f5EDhYoThlzyKC6PYTX0RiVSIg+dVWfTunCW2aO7Z0YnUc9xVzBLDawCCzCg9qxufjNR0zi8r5UPZ9HsrIqZG1ON/k0bP1BgAkEPpHcjah47eQyM8hLO3xsKOaDXCEkOAPasrd+3VMZjNQD/5rduJEmRYPYYqQJb3LG2DFp2H1e1GpEETCyEAdsUyKaKOTMTxGT9M0jVI6fd9OnKwTxtI3IbFV1/DfQ3qy38Y0H/8AxH/4rVNJctKGCQN8lt/9qkns5L5R56J+jU9lpnl8QxWcwUNIYcDZxxWp6dfQdTt1mtJRtyAOKEPT006JYoWGMcUP0/osVjdyTrOyI/8AINgKV0c2k6nYa7v8W7hnUYGRjFU/UxiBpMAHYHFaWaCKRD/1OCRxzVD1CHyY2Vwrxn+YNk/tQVihNvOpWRTlchgfY1oYOrRS2TrO/lyhcEE4z9qFRIXtQIJQ7LyO9QrZwXWQ+Q3vT1sb0b4dS6a7aQyM0WTjUatnkMLzrGRrO+9Q27w2csaFgoXmgupTvcXsrWxBTA4p6G1df9ba2uysyelht8Gp7G6W7t9WcnO4oe4t1/GoZ01KV7ih0LW1+BGhSFtsEUEDtIDbdTnQEiMHWVrTWd15pIjT6Rz71XyWIuZhOhI20tipOnyMrGCPOgZ1NjeinFvaulzdCJF0RqcvgYo7rcxkSOKHLLnBxQVtZQWr+fExZzzk7VZW13HGokMkTt/RtULiN4Vng8pRojA3Hep4NOkJrLY4BNPS6hUGa4GjPtxVVcztcXPmWcsZgHG+N6DT3t/DZ3aRSufV/T2pbi6hC6izkdsVXXdpf3UIVLaPP9Zbc/2qPpVjJ+Yt0WBHC0jWli/4olgCFHzzVpqSEAtyaG6fEoOlMBRRzW3nXCuT6V4FGxpKxxFrIxtnFVzQPcASyfT2WrK7D+bHEF9Ld6dLqSUR+XlPejZ6ZvqMNw1pLGVUZ2UrVP0O0bp/UYmYEB/Sa1PWImwhQ7A5xQUxE9xaxIMOp3qvpOu1ywUgKDTo4ghLZyTToLTyiSSS3zXXWpc6OcVJhLu+aFtEWDJVXc2EvUVLS6muCcA42Ao6xhnjunkmCsDxmrEJgZDae9P0XsJFZtbWSQSLkJzg80RbTIijJAxwKjvJmaMICSe9DRptvvQFmLxCSM5/Sgp44i5mEa6vcCn+XEsOWOg0LI5CYQ5HcmjQ2kMhdB/T9qIs7bzTjGFHeqWa41xeUkgyDnY1oOnt5dtGJD6iOaNCOubVUGFFBQEpMDkZB71bXDL5ZLdhVPKHk3hUneiC1YG4WNS8jj4Aoe4n89lZwQmKD8hwdTZzRUaOyBWIp6LY2CJCv5eGX2qeOGGNi6IAx5ND2MJjYs0mR7UHP1FI55AWAjXmlrY3o7qU7i4jSAau5zxVcLfW7m6nSI8gBqje4mv3LW4EcY21E0NPZWqKWnuyxPIzWmOH9ZZ82vT13pNz5ljEzckZNSXEwXJzVXaXAW3TyyCuO1ddTLoJzuaVnYxvRwnEjkmnglWzVXDLqJFWFkpeTDHaixUuxLyIq4/mNRxnVkU+VQZNhxSDCqfepUSJQjs1c0haPIOPimBue9CzSsMkDAFA26VwynUcYqkvrgvLgN6aW7ui2sqdqrVfzGxvmqk0m0XFkjbmjIoGLDUKj6fbM5DNwKvYrNiQSKVpyHW8emMDHNWEMALKCKSGICRRjajX9G4G4qLdrStIkKY4qsv+rLHtHvQvUb1nJjH6mq17cuQN96WgD6jcvPIWc/pmmW0DSMrCrIdNwQ7DPxRZjitgrY3p7LQWK3bzMMNqNwI8DFVt71dLZ/UpyaBfxEhcZU57AVUwt9M8uTHG6tX0+CBjY04R507ZrOP4hjjJMiEn2qa38VwasFMYqvw5/wAT/k8e9baVYQ5wdqJigEf01S2vXoJz6VP7VYp1RMDYj5rOyzqtscpe4NcBRvzVdMrO52qRr+I/zjNNF1GR9a71J7CXUeuLDcVjPF91HZ2bpq9ZG2a2N5dxJE41gsPavK/EQm6t1IDJ052+K24sPK7c/NyTGAPDN5+Hsrk4y7mlidndVI+o0yRRZ3BgVcINifenBvKlQ4zg5r0OOajyObLyyeqdLjt7XpcKyOFGnfNZnxN1azVWhjVZG96znUOqXF4wBZlQcAGgTDJMWKo7fNZ4cEl8sq15Pk3KeOEQGRjMWXbeuuB52BIAfmjbHpVzOwAjI+TWksvC8YQSXUu57VeeeEZ8eHLe4xttHHbhjGMk+9Mi6Wt1LrYgvq1b1peu9Aa1QzWx1R8ke1Z2GWRXOg71jcZl3i68eXLC6yWCPGY386RTGDpKkbZrKSRJ03ravOha1YkjB96uJY/MVwDpLNkg+9MktYpYDBOck8H2rG46dWOUyVk0stxfO3Tg4iBzjnFXqSRdUsGhuQPNAxihOnWMnTI5CG1h+M0DrngufxEkTJEG5HBqb2tazdDtD0gqkJLKMjBPNVVt0ceWo/CyKxO7EmryJpr6WOaymX8Og9Sk96hvL6SCfRdqEB4ZeKmWnZEdpaRdPkJSVl1c6uKs0uSB6gGHuKAjt/xqkF8qe4p3TemvaOY3nZ1J2BookVXiFPMYyR4OFOcVR2FhNdoZYkY422HJrXX0ISQ6U1g80bb31rBAFt4SSo3UDvWk5bjNRjlwzK7qjtfDd1JbgyFUc9iaKk6FeRWb6UDNz6d81a2/XRPIsaRpq9s0QeozqhYhNI9jROXPabwYRTdKja2tbqO6jKCRcDI702CXyFRIwCw2BPappPNu3klc4QbkngUHJeIh02aeZJ/Ua1m6xuseovbaC4mAa4lESHuTg0dMtnZ2zzWWbi4VeAc71QQ2F3PGst7OseeFLYq46Xai1Qrqzq3LVjySRvxW36O8OT9Summe+QIn8q4wQasb7qFvaJh21P7Cqi56lJ55t7NSd9yO9SfhrOZQt5I0NweA1Q6dg7nqF7ebLE6QE9h2qzsenWU1uAkzJPjfJ3zT3voLRFt8CTQMAgUILae6kM0UTAMeRTSinVLO4MV9cPEG+h87Gqa46tNHcmG1kkmOcDSea00/Q4biMG+Zm0749q6O3t+n2huLK3WVl996NjVQ2d11i1tY5byELbsQCT9QzWlSKJ1DHL6hkHNVF/1Bbvw+0mCusgaT75om66ivSuiWrSAGVowFHzipV6WkIjU40Cq+ZYrq5miaMFUA74rPReIeouxlEQKDdsVa9DvfxQlkf0s5p6sLylNl6NbLlokKOe4Y1XSRSW83c/8ANaZ2AHahZ41dScA0yVT20c4V5Bv96ggtlheVVyA24+KMuIZUQmEAt2BqBDN5BeWPS3emAd2CsInP1RnBHuKqb29/FTwFFwQ29XV5ia2ePVgsKDu3hWySPytMyjYigCOlwOwmUn08irvotpCYDqg9O+WzzVFYXkVtbySSvkuMBa0kNwnkRpbOCMZOKzyq8YknsrY8Ap+tZy7haCR8AsgOdQq16ncOxCxk4A9VAsFA1a9jzmiKo6wgvL620uBHAR9TDfFWHSbLpqSNHbEPIn1b/wDFZXqPW547YWkbHB2OKI6GJbKW3ui+Vk2cdwKLBPbZXssVtC8sxCRoNzWZueqRXs6Hp6O7IfW2O1aW7jiuoWinXXE43FA2PRrKzlLwKVztjPaoih0MS4RwuxGdqMVRkYqEYUqAMAVKHA3J2FCkzIC4Y9q6VgqkvihGunlLiEZA2qaGGSTefjsKNBU9TVpT+UcY5NDWtg7zRyRyZwck1pHgVo2C44oC0jKDAH07GqlTYIAYljvimmLXnJxUmGKnsK6M6vp3A70gRrQrEDECT3zQUpkOV2/SreGQOjCR+3AoOJljMgIye2aJSsVbppHJJ7UqAgY/mNElVLlmOT7CqvrVxhVEIYHuQKtPpNcRyRASuQwHaqXqnUpboi1t4dLnuO9TQ291eBQXcIO5qwt7WC1fUPVJ3Y050VCWHSobeSKWUszgZbfvV40gYrp47UCX2Yn6RQpvFJ0iRQo5JNPVpXKYiOpdSywjVwF4Y1CnW4rWAgrrPuO9UV4qTXQS3k80sdlHvVxZeGRJEDeSMrdlXtWvjjjP2c15c8r+qCbxOobEcGfvUUfiRw+XgAT3Bq9Xw/0+OMnTqI7k1FL0fpiq2vSpPuaPLjvWk/8Al97PsupR3loGgI1NtjO4pJLS3dWkuCAQNt6zmmwshNplbXnKgHYUOnVDliMsD7micX8F+R1rJbXFwqK0cAYr2Ciq6axu5W+pFzwC1Fi5tryIL5nkP87CgTZM1wi/iA+o7aWzWmM0xzy8npXSn09OjGTqI2olvMJwwOKr+n9WtpIlBjKmreTqlmkAJO9ZZY3fp04Z469o4dMQxpyaOtZVUaiOeKCtr2zckCRTmjnWN4g0bAge1RZWkylTCTU+O1JKyqAG7moIG1Ag9u9DSTMJdBGcVOl7FMyRAn3rP9Y6iYyV96Pv3ZYS52wKyiOby9I1ZxTkLez3mdkzuM1YdKs2lXVpNNhtHur1Il2UVsIrAWkYUc43pWnjAVhER6WXGKskOhDS2sYCsT2pquhypbes/bT0ltXLNk8U/qDOsBdc54qONCp9JzUj6jHhqehtSwKS2WG9FFgP5TRogVBkrvTRGNyw3paGwYdnIABoxrTXGpbn2qSEqjAlQKIknC4wuaehtU3HSobj0yDNVUvQrW1laVm4GwNapJNYJCcVhfF3UXe68mPKquxrfgwyzy8XH8rPDjx8rGavhqvJSpyM7Va9I6H5wWSRjoNV0MLTzKicsea9Es4ILXpiIrDWB3rq57cJqOH4snJblkrjDBZxgDSoHvVfc9bs4X06skc44ofrdtcz63lcpH2FZaaAhiBk/NRxcEz7tX8j5eXH1jF9P4iiyQkZ5oWfrxkjYIpB+9UbxtnbanQW7yhiNlXk1veDCOWfL5chpvylu2GLSP7mqdpHB1avV70+RsOwzTNGRmrmEx9M8uXLL2ns7FryYPNtGO571YXdnZCMgOMjjFVqtMw8uLVvtgVaWfQbiWIPK2hTznmssurvbfj3ZqQBZfhUlBnBYA0R1Tq0MMWmxiBJ+KOm6X0+LHmXG47UltH04ylYyCe2azyy323xxs62oYeq3eAfpJ9qbc9Wudh5p2q763ahbctGg29hWTdQ45q8LjlPTLlmWF9tt06/W+6SwdvUFINYe11J1UKMEB8f3q46B5irIqbrjiqzqMEkF+JlU85qMZJbGuWVykybK86Fb3FqZiSrac7Vj2UicRr6t8A1sIusRyeHWZiPNxpIrN9IhM98jYyq7ms8Z1fJpll+08EV8j/hmhYFWxtVLY38kqP067by0OQDgb1sOtkJnbLNsKz3WegXEkSXUAPmqM4HesrHXMvpVW9td9EvVIfVbSncE1cXDw3rBZgNGKzVx/iVy3lyByyDbIqToF6ZJ3huMkrsKViourWyW1n1xTsRnZas58u6RIfzX3+woaG3XXnJwN6MsiIj59yyoz+lAamqD30RDJEynQf5x2NU0cq65yp1BWwRV5NG8AlcZdG3+1UKR6C5AwWOTV4YXJlycsxWFibe2USRwaXk5yaPv3UxxR26F3ffaqq3wra3Qsoq/t72L8E/kRqsgGcntWnhqsPyeTPu0jp5ROEHIpbYpE2W/TAo+1aF4i1yqhSdj7mqu9dYncqQFH0n3rWfxhkP6dovryZXkbC7hc0T13qAs4FghByRufiq/odm1ufxrzDB9TiqHq/WhPesQxdS2AF7CsM5uuvi/wBR/Sutjpt550sbFTscijes9eTqYj8gAqPbmorPoLXKxTytpQnPlt7Vr7Oxtki02tmpA5OO9Z3LGN5LQHhnpiyxJPdOWzwpq7a/SO4eBABpG1TZiRF8z8s01m6c0mrzkLHk1O9q0htLk6nWb1Rniibf8LBCxUjBPBqGe2hdS1nKrN/Tnmq+2lkSdhdW76hwANqAMFqL6/UyRlLSPcDGAxrN+LL38V1xYR6IYcIP9q0h6nHrxq0EdjWO6/FHP1GRkk1KxBJHberx9pyXnU7Oe26YJrW4T6BqyBgim+HLgt0ouwzpY5xzQl1YW46PiC/ZsAHBP9ql8LFksZ40ALjf70/ol/FcCTZTnapFb1Y7GqlLkSYcIY3U6WU0ULyNZESRwrNxnvUmOkQk+neo5rU+SSNx3qws1Ew+aWa2eMH2pbPTLzR6VYjfHaoBEsseZNtO9WHUI/JbUPpPIrKTXEzPKmohFOxq5Np3pNPp/EltOUHarqznEMBfGABkVQWZeScLJup71cOVIWAd+1TlFY1ZdJkMjtNMMr2FP6jEt56voRfam2mtZY7eJdjyatp4D5eiJk1Y4Peo9K2xctu34xBDhyDtnvWjWwdrVVfCu+23agbeBo73S66SDWiTTkszDy4hkminEURMKrH5mp12J96L87QpdjgAbmqaBnupiYBtnmiJUnZCjNt3paVsZB1SKaXRG2pjsMVZRKSAXqhskW3kDIo1HvV/EwwMkUrNHjdpIY443YjbVvSzzBVJG1RF8vgcVzhHABpHXJI0gwm3zSW2yuM5cscmnPIFDBR2oOzkJgYE+rUc0yEzTBAUzXWaPMreXxQVzbySjbYUbYubaHDsMd6YMmSWJsk7e9DTTFSGzxRN11a1kHk61DHvVBd9Rtow6vMpA7A71WONrPLkxn2tPMjUGQNnI3oV7iJj5mpSp2rJdQ6xLPCYbMFNRxnvVjZW34fpRjkl13DDVg9q1vFZ7YznmV6W6XqeayIQDTJ/OZS6AHHaorW3Vp7eSU6XZMY96vhAiRZcbDcmovS5dxhb27uJ5jGCVA2IFDYbSAdRPt71e3UkNxfyCBVEajLGjPDHTRczteSqTGpwgxsa6fKY47cNxuWWtk8NdGaA/jbpdJx6VND9d67K8xgsyVC7EjvVz4k6mtqnkQ48wjj2rJ9J6dN1G90LkKTqdvaow7/fJWfX6YAJ7m57zOT33qCSWdlOp3J+9ejWfRrK1I1RBm9zRV9YQSW7FIlBA4xRfkYz1BPiZXu1hLXw7e3cKyAAAjlu9BS2EttetATnHNen2wU2SbYA7Cs71VI06ygZNnXc0sOa5Xs+T48xm4z9raWMrxpJO2t9tu1GdQitrOeOCyOuZv5s8UJBahZJJGU7H01ItjcTtmJScb5rS372ymP1p6ra3fRCoJEeaivr/pCyeWoQqeTWa6j0+bpxWObAJ4qjv2OrAbeuifGxym5XFl83PG6sbuPpvTrka42Cg+xqY9G9BEN0wGOM153BNMiDTKRj5on/ABW7jA0zN+9RfjZT1W2Pzsb7jUzQdTtNo5PMUcYpYrm9T1T27H5rNw+JbqN18xtSg71ajxrbIDri2xWeXHlPcdGHPhl6qXrnXYf8PkWTKGqrw6ySp5qeotUPUJ7fxAy+WhjiLDLe9bzpHRLS2sIVjXtzWXJJjO2/Fn5XUqqtRJBcrJp2G9GTddyzKWGrsDVyvSoQjMQcVQdW6NFctmEaGB5FZ43G3tefnJvEXbSTTW2qSVY1J33oC4uYIn/9Rk/eqS8tp7RhG8jFTxvQzE6eK7MODGzbz+T5mcutLqbr6wODGXbFQr4iml1NqIHYVRR2s9zMQikj3FTvam1YLMQBVXjwlROfms2uv/Ek2nTqOPeh5fE80bgBsg81T3WiQqsGcnarWz6Sq2xMoEkjDv2qMscMfpphycuX21nQL2K9szcO3HNVnUvFJjmMcEQKjbNZb/E5umytYoulXPNKyPK+yEk0cfDjbbT5/k8k1jiuk8VXTMEVN29qKu7IXcYlk9LNuSaF8N9Jme9Es8ZWMb71rZreOTYjbGMVlycmOGWsG3DxZcuH/kYo3ENgStumuQfzUy2vLqW5UvqIznFbFOnQIcpEuakFuif+2M/apvyJ/DnxLL7B3lzE9iMxFmxxWXi6Tc3ly2iIovzWwlCoCWACiqyfxLZ2hYaske1HFyZT/SDn4ePLV5KWPw5DaWUks+GcL37VQzWqRdImkUAazgUvVvF73cDQwrhDsTVI3VJZYBCT+WDxXVx4Z3vJwcvLxT9cHdN6PNfz6Yht3b2q7m6DadOi1XMgYgcVV9P6tJYBhDtqFBXt/LdOWmct8ZrS4Z5Ze+mWPNhhj63T5r+G2kJtovsTUM3Vrq4GC5A7AUI7qQatvDaQPdBZlBz70Z4Y4TY4uXLky8d6Vhs7qVS+lz3yaAZyj4DEMDXqV3DDHExOlVArzTqyIbuQw/Tms+Lk/J9N/kcX4dWVq/Dri/6a6S4ZxtWU67ZmwvCmPS24ojw/1F7C50gEq1WPiuJru3W4Qcb4qJLx8n/K1tnLxb+4p+hXgtrnBxobY0/r14slxoiCkDvVSp087GlY6mGeTWlwm/Jjjy3Xi4yORpBOKsejXBhEijduaHvPy4YoIVzM52xzV50TodxbR+ZLHl2HesOTKa1XZw4W3ZnTIz1G5aafOlTgA1eSDCEYGBtUMFrPFJgR6U+KKuwVgwF3rkuW67ccdRSXVhHdqdACyfFYO88PXnTOqJM6Ewl9RYe2a9N6fCwk1MKsr6CG4tSsygjHejy0ennQlWJ1DnSrd/ig+qdQF2yhB6I+Kt+sdGdC7wbr7VS2YW3kd5o8kbAH3rfjxnty82eXpadEm/DRyS3T6UI2DUvULu0uTmNyp+wqkmkaRyWOx7U0nfet5xT25cue+l/B0U3Nv5iXClfemR9Cl14W5j05333oHpk8ouFhRiY2OCKdcwyx3jrrOM7EmossutrmWNm9Ly86JI0EUdu66UG+e5rOdQ6ey3ywTvoVRqPzR88VzZojvcH1jIwabYRJd3IkvZ852FEtirJleoN6X06O46bPG7EI55qHo3hewtblrhsyeX7+9WMnSJxDiO88uIDYCu6OVgaWKWbzFPLVzZZfx3ceOpIkl6oVkAggygOCSKurW4ikhVoyASMkChrmIXFm8cBALDZsVn7Lp/Uba7Us3oB3I7is/bX00PUbm58vFtGkh+aF6a115p/Gwx6DRhOTnuaillRNs7+1OEKVYBID5IBHBBqWYq/qwKrxctj0wuQO9dHdLJCZEOQvOO1MhTCFl0vGpz3rK9X6VHFfl0R1jl4I96upLmMx69QAFCzSJexmPWDj1KR2qomsp1oXnTlHlW7PGP5jU3S78i0Z7hTA7/Sy+9E9WfzYGtprhxvsAB2pnSLQXfT5rdmBZDldVUQ7pd9JPbyLJpeReG9xTerp+KtkCkrIMMD7EVXXFhJZwq4LxSFguexopLgyMscmBKmx+acDVeE+oefAEf8Azo8K1Uj3HUx4mMcxkAZ/T7Fc0d0yN7dzPCo8zG6+9SW/Uvx/XIka3MTRo2Sw77cVH2r6WXVYA8DK25rzq5LwytEx/wA2QAH4r0u6BZCOSe9Yjr9rqvoyE+nckVWNTkJsIIygCMCw2OasnjRVDhRkd6r+nIsSea7YJ5+aKtjPfk6QEhzjPc1ORxb9IZArOcFs7VYBcbomCe5oW0tFgXAIye5qv6l1UWVwY5Hyfiok8vSrde0XVlnD61cDferGOKSfp6woSqH6m7tVZNOJIteCQ1GrcusCqG0DHNVYJlBiuljGsEAGe5pzTFlOsfeqxn8s6sNI55PtU5v1hgLmFtIG5NTo9ptauSoU02DzFmBWQhe6mh+m9SN2GkMAWMHAI5NStdJNIFiPqp6Lyi4WQFQRzTly2++9VVteBX8tnBY1LJ1SO1JDsC2OKXjfpXnJ7Wp9Me/IqmtrkwXExcYjZic+1VN/4kkDEJFtzk1FbdUF9BIqroOnJ+9XOLL7ZX5OHqLi86xFCC/4hSqngGs/1TxJJcKUjXSp75qt6jbxIscqSa2cepfY0Gqk9q6+Phxnbzuf5Wdup078RNr1Bzq+9RySM51ksT3qR1HvvXKuBXRpxeV+1z4fgt2fXKyNKfpQ1Prk/wAWeKddLaTgfFUCllYFThgdiKu+hzrd3ZF0w81V9LHk1jyYWduvi5ZdYtJd6EhsbjOlVIUn9qi691NXHlQOCCO1CzXQbpbW2dbhyR8DNC9EsV6he6GbKJ9Vc0xk7rqudv6x1jZyXJ8uAHS3+Y9X1/fR9JsFt7fAkIwAPei5XtLGPyRIkbY2WqNunSpI99dsHRd1FEvle/Qs8J17Vjo8syx5LXMp/at30PpqdPtFQfUd2NZnwnbm66vJcSDIQHHx7Vt842qefL/1jT4+H/tUc0SsvHFAT6kIHAq0A1A5oW5QkYK1zupXxymGQof8t/7UH1aItPDOg16OwqxMGoeoZFVl7HNArojHy37+1XjdVGc3FdcXVnAdU51Pn6B2oKbxGyAi3hUA9zTLvoF0T5inzdW+aCn6PeqCWgO3tXZhOOzuvO5Lyy9RuvEfVB1K6zjCLxWZnOpt966ur0ZPGajxMsrnlvI+0t5rmQLEhOatV6C2Myvj4FdXVyc3LlLqPS+NwYZY7qQ9Ah8sncmqY9Ji/EtqXKA7Z711dU8OVyy7V8rGceP6jlQRroiUKo4xWs8OdcVVWG6Oy8Gurq6efjxyx7cPxebPDPqr2Xqkc0miFsqe1JdlILfzW/aurq8q4SZae/jyXLC2sX1GV7q4Z2Hp7VXSKxkC6sg11dXo49Y9PGy7y3Wj6SkVrEASGY70J1VbW4uSzvggfSK6urmx/wBtu7O645AFpeWMVxl4c42zTOqX/wCfqtnOnHFdXVv4Te3LeTLWlWLoXfVLRLoDOobj7163bWNqsKNEin0jeurq5Pkda07/AIvc3Q9/eRWi6WIX4qjfxLAjFRv811dWnBwYZ47rH5PyuTjy1isOl9WgvpdMbYNWtwUSPWzYArq6ublwmOfjHZwcuWfH5X2yHiTq0f4dooHyxHIrDSsc7jfvXV1enwYTHHp4vy+TLPPtFnHNdnJrq6t3JtzPjvUMmwziurqAF833NH9On8qRXB2Brq6le4qW43cWF91ae5TRqIU/3qnl2YntXV1TMZjOmmWeWd3lR/ROnS3twmF9Oc5rep0+BbYrKuQFwc11dXn8+VuenrfHxmPHuPOvEdnAl6/4c4X4oXptqJZCXHpQZrq6ujLrFyYftn2v/BNrFddammnXV5Wyg16N5EUi5UCurq8zmtuT2uGSYhpLUAnYYoeS3Rjhl2rq6s5WujB05SCy7VXXdlMfpbYdq6up7KwI9thC0g4rLdc6cs5Z4QFb2966urfjysYcuMs1WXmjeM6X2I5rokaRgqDLHiurq7t3x28nxnlpYKDanSyFH/qq7V+mi1jmuE1b4LH3rq6sb26seopeuXcclyBbSaoRtj2qK2s5J0jeH1KzYOO1dXVWX649Jw/bPtqOoWc00Sqkh8sDdRTbLpjW+mYEkjlPeurq4rXpxZ2tzFMCF9JHIpt5Pb265mk0/eurqlYJrxZF1Qf5YGS59qfYzW99azNYyCSQA7/NdXU0qWx8TtZeZb9UiYyISMihf8ZU/iG6dAEMm7Bq6ureYz2ytoNeo3n4Fy6Kyrsfim9ONxKGmtnIZRkiurqei2rut3JZo5oJz5+r1j2NW3gtpZ7mcStrkK5JFdXUr6Ut5po53aH6vLO+feqjqVpNcTrNatiVP5feurqUC96HezSL5c6aZVG6mrC7vIIg0jLomjGQO5rq6ps7OVM3UEngjkj+lx+1CTqJlc4GojAJrq6gld09FmldLkYddgvxR7y/4cqNECQzYCe9dXUURcLcB+25H7VR9Ta3JKtCrS53Y9q6up8c7Ty39VPd3ItWi8qYOc7qOKmjup7ggxykZ2x7Gurq6LjNOSZXZ08nU9BQuWXG+PaovxwksPwza9R2J7V1dRMZSyzs+w8EU+dNu7MF7VbqfKQPpCuOcV1dSykPDK2I7e4nSZ3BjCjfJztQslxLcXD+WdTP3rq6njIjPO+gsjmO5RJgdIOGzVu5tla4kgwsegafmurqq/SJfbPtIW964A45NdXV0xxe64nYDFd3+a6uqidgmo0kMc5wcYxvXV1K+jx9tC6O3TVnibOo4J+asl19D6OJf/dl3z966urj93VehbZjcozks0k8jO7+o9yasrPrc0Fv5EoEsOdwewrq6ujLGWOPDPKXe266DFbx2Ykto9Ik3NWEsiRgM7YHua6ury8pvJ7mN1hsG/WrGIEmdduaCfxFYNljOMV1dW+PDjXNl8jODYLiO4iDwvqX4rmXWCrjY11dXNlNXTrwvljLVcZGs75IWH5L8H2o8DUdt66upjb/2Q==;" vertex="1" parent="2">
                    <mxGeometry x="481" y="160" width="230" height="172.5" as="geometry"/>
                </mxCell>
                <mxCell id="8" value="&lt;h1&gt;&lt;font color=&quot;#0d0d0d&quot;&gt;&lt;span style=&quot;font-weight: 400;&quot;&gt;Random Cat Picture&lt;/span&gt;&lt;/font&gt;&lt;/h1&gt;" style="text;html=1;strokeColor=none;fillColor=none;align=center;verticalAlign=middle;whiteSpace=wrap;rounded=0;" parent="1" vertex="1">
                    <mxGeometry x="220" y="80" width="440" height="120" as="geometry"/>
                </mxCell>
            </root>
        </mxGraphModel>
    </diagram>
</mxfile>